<?xml version="1.0" standalone="no"?>
<!DOCTYPE svg PUBLIC "-//W3C//DTD SVG 20010904//EN"
 "http://www.w3.org/TR/2001/REC-SVG-20010904/DTD/svg10.dtd">
<svg version="1.0" xmlns="http://www.w3.org/2000/svg"
 width="2048.000000pt" height="1881.000000pt" viewBox="0 0 2048.000000 1881.000000"
 preserveAspectRatio="xMidYMid meet">

<g transform="translate(0.000000,1881.000000) scale(0.100000,-0.100000)"
fill="#000000" stroke="none">
<path d="M13405 14970 c-3 -5 0 -10 8 -10 7 0 31 -13 53 -30 21 -16 44 -30 49
-30 16 0 232 -111 308 -158 37 -23 69 -42 72 -42 6 0 236 -169 253 -187 7 -7
17 -13 21 -13 22 0 346 -344 362 -385 2 -5 34 -56 72 -112 37 -56 67 -106 67
-111 0 -5 12 -27 28 -49 15 -21 32 -48 39 -59 21 -33 103 -204 103 -214 0 -10
25 -70 46 -112 8 -14 14 -33 14 -42 0 -9 4 -24 9 -34 6 -9 17 -44 26 -77 10
-33 28 -91 42 -130 14 -38 28 -88 33 -110 4 -22 12 -53 19 -68 6 -16 11 -42
11 -58 0 -17 5 -39 11 -50 11 -21 17 -60 46 -304 29 -235 21 -555 -17 -755
-26 -136 -42 -207 -51 -235 -6 -16 -14 -45 -19 -63 -4 -18 -12 -38 -17 -45 -5
-7 -18 -39 -28 -72 -11 -33 -23 -64 -27 -70 -4 -5 -8 -15 -8 -23 0 -14 -20
-65 -46 -115 -8 -16 -14 -35 -14 -42 0 -12 -17 -51 -42 -95 -4 -8 -11 -22 -14
-30 -17 -41 -89 -187 -100 -200 -14 -19 -65 -110 -121 -220 -25 -47 -53 -98
-63 -115 -10 -16 -29 -49 -41 -72 -13 -24 -25 -43 -29 -43 -4 0 -16 -19 -29
-42 -12 -24 -31 -56 -41 -73 -25 -41 -70 -123 -70 -130 0 -25 131 43 390 205
8 5 58 35 110 67 52 31 111 68 131 82 20 15 47 33 59 41 13 8 34 26 48 40 14
14 39 35 55 47 16 12 45 37 65 55 21 19 62 53 92 76 30 22 116 106 191 184
159 167 184 196 229 263 19 28 40 56 48 64 8 8 25 33 39 55 14 23 31 46 37 51
7 6 24 29 37 51 13 23 49 81 79 129 93 147 101 163 89 171 -7 4 -32 -16 -61
-50 -54 -61 -67 -66 -86 -36 -34 55 -95 -1 -243 -225 -58 -88 -138 -200 -176
-250 -70 -90 -253 -296 -348 -390 -55 -55 -333 -284 -397 -327 -52 -35 -107
-51 -125 -36 -33 27 -9 92 112 308 172 307 331 700 394 970 39 166 61 379 61
594 0 171 -5 232 -30 406 -35 239 -48 296 -129 567 -106 351 -176 501 -375
803 -96 145 -128 184 -260 316 -231 231 -485 409 -772 538 -130 59 -170 71
-179 56z"/>
<path d="M6410 14916 c-345 -129 -771 -406 -983 -637 -362 -397 -583 -838
-712 -1419 -37 -169 -48 -329 -42 -620 6 -280 14 -338 77 -590 68 -268 167
-533 278 -735 66 -122 162 -310 162 -318 0 -26 -283 144 -457 274 -158 117
-299 250 -388 364 -34 44 -121 168 -192 275 -72 107 -140 204 -152 214 -21 19
-21 19 -21 -4 0 -12 18 -49 40 -81 22 -32 40 -61 40 -63 0 -6 233 -353 262
-391 79 -102 369 -354 496 -430 9 -6 42 -27 72 -46 30 -20 62 -39 70 -42 19
-9 44 -26 159 -104 51 -35 98 -63 106 -63 7 0 17 -5 20 -11 4 -5 17 -14 28
-20 12 -5 29 -13 37 -19 47 -30 151 -90 158 -90 4 0 25 -12 47 -27 36 -26 84
-53 172 -98 18 -10 40 -15 48 -11 18 6 10 24 -37 87 -16 20 -28 40 -28 43 0 3
-26 46 -59 94 -101 150 -157 236 -164 252 -4 8 -16 29 -26 45 -26 40 -53 90
-121 220 -88 170 -107 208 -120 240 -23 57 -37 90 -52 125 -19 43 -37 96 -48
135 -8 29 -25 78 -41 120 -11 29 -29 102 -39 157 -5 26 -13 56 -19 67 -6 11
-11 32 -11 48 -1 15 -7 39 -15 53 -8 14 -14 46 -15 72 0 26 -7 73 -15 105 -21
82 -21 573 0 653 8 30 15 74 15 98 0 24 5 53 12 65 6 12 15 40 19 62 19 99 86
334 100 349 5 6 9 22 9 36 0 14 7 35 15 46 8 10 15 27 15 36 0 9 6 29 14 45 8
15 21 44 29 63 30 70 80 175 86 180 9 7 26 36 65 112 19 36 52 93 73 125 21
32 41 65 45 73 19 44 290 359 352 410 16 14 46 39 66 56 45 40 187 144 196
144 3 0 23 13 43 29 56 45 164 108 311 183 140 73 160 85 160 99 0 15 -21 10
-140 -35z"/>
<path d="M13340 14912 c0 -4 4 -23 10 -41 5 -19 8 -36 6 -38 -1 -2 -33 8 -70
22 -82 31 -121 32 -136 4 -25 -46 12 -100 215 -309 286 -294 464 -590 595
-991 46 -140 35 -139 -18 1 -77 203 -176 376 -316 552 -67 84 -137 166 -155
181 -37 31 -111 71 -111 61 0 -4 40 -48 89 -98 49 -50 111 -120 137 -156 26
-36 53 -69 59 -75 49 -40 200 -338 251 -495 10 -30 24 -64 31 -75 7 -11 13
-29 13 -41 0 -12 7 -38 15 -57 8 -20 15 -50 15 -66 0 -17 7 -56 15 -88 11 -42
15 -114 15 -278 0 -164 -4 -236 -15 -278 -8 -32 -15 -71 -15 -88 0 -16 -7 -46
-15 -66 -8 -19 -15 -44 -15 -53 0 -10 -6 -31 -14 -47 -22 -44 -34 -73 -57
-143 -12 -36 -47 -112 -77 -170 -30 -58 -62 -118 -70 -135 -17 -33 -64 -96
-100 -135 -13 -14 -48 -56 -77 -95 -56 -74 -153 -176 -225 -237 -48 -40 -49
-59 -3 -35 69 36 293 275 405 432 89 125 223 428 275 622 25 94 27 113 32 433
l6 335 15 -90 c19 -113 20 -454 2 -580 -55 -383 -200 -766 -424 -1122 -145
-230 -194 -290 -437 -536 -218 -220 -433 -413 -611 -547 -283 -214 -664 -533
-766 -643 -171 -184 -331 -411 -434 -616 l-69 -138 -61 -6 c-103 -11 -199 -68
-236 -140 -9 -16 -42 -57 -73 -91 -54 -58 -80 -107 -95 -178 -4 -16 -11 -28
-16 -28 -13 0 -77 78 -136 168 -57 85 -57 97 5 107 54 10 91 26 101 46 18 34
11 66 -21 93 -36 30 -76 33 -159 11 -84 -22 -108 -10 -168 83 -118 184 -207
397 -258 618 -23 100 -28 148 -32 299 -4 208 10 303 79 510 75 226 187 408
366 595 108 113 204 186 319 243 179 90 237 102 406 86 141 -13 191 -6 227 32
15 16 36 23 86 26 36 3 63 8 60 11 -34 34 -315 56 -411 32 -27 -6 -71 -15 -99
-20 -27 -4 -66 -13 -85 -21 -64 -23 -280 -132 -280 -141 0 -4 -5 -8 -10 -8
-22 0 -187 -135 -244 -199 -100 -113 -108 -122 -139 -170 -17 -25 -34 -48 -37
-51 -3 -3 -17 -23 -30 -45 -13 -22 -26 -42 -29 -45 -6 -5 -21 -32 -56 -100
-32 -62 -69 -155 -90 -230 -9 -30 -21 -63 -26 -72 -5 -10 -9 -33 -9 -52 0 -18
-7 -53 -16 -77 -13 -36 -16 -88 -16 -279 0 -161 4 -245 12 -265 6 -16 16 -52
20 -80 12 -70 34 -152 43 -161 4 -4 7 -15 7 -25 0 -18 16 -59 48 -127 8 -17
13 -33 11 -35 -10 -6 -458 9 -465 16 -8 8 -17 59 -35 197 -13 103 -7 535 9
600 6 25 16 65 22 90 6 25 14 59 16 75 3 17 11 44 19 60 12 28 28 69 62 160 8
22 19 48 24 57 5 10 9 25 9 34 0 9 6 28 14 42 8 15 42 83 76 152 33 69 74 143
90 165 16 22 45 63 63 90 19 28 40 57 48 65 8 8 26 31 39 50 40 57 82 100 145
148 33 25 62 49 65 52 17 19 131 98 160 112 74 35 147 66 185 80 97 36 113 41
160 48 28 4 63 12 78 18 44 18 344 16 397 -3 23 -8 53 -15 66 -15 13 0 40 -7
61 -16 78 -33 99 -42 135 -58 45 -20 84 -21 91 -2 5 14 -21 46 -37 46 -5 0
-65 38 -135 85 -71 47 -134 85 -142 85 -8 0 -19 4 -24 9 -13 11 -93 36 -170
53 -120 26 -453 13 -540 -21 -11 -5 -47 -16 -80 -26 -65 -19 -112 -40 -190
-85 -27 -16 -70 -40 -95 -52 -137 -67 -370 -278 -500 -453 -37 -49 -74 -96
-83 -104 -9 -7 -17 -18 -17 -23 0 -6 -10 -24 -22 -41 -26 -36 -44 -65 -54 -87
-4 -8 -27 -58 -51 -110 -25 -52 -50 -106 -55 -120 -6 -14 -16 -38 -23 -55 -13
-29 -28 -77 -59 -184 -9 -29 -16 -72 -16 -95 0 -22 -4 -57 -10 -76 -5 -19 -14
-84 -20 -145 -6 -60 -17 -180 -25 -265 -25 -254 -28 -348 -16 -449 6 -53 15
-134 21 -181 18 -152 27 -206 39 -228 6 -11 11 -33 11 -47 0 -14 5 -36 12 -48
6 -12 15 -38 19 -57 6 -29 35 -118 69 -215 4 -11 15 -47 25 -80 10 -33 24 -77
31 -98 8 -20 14 -46 14 -57 0 -11 4 -28 9 -38 5 -9 19 -51 31 -92 13 -41 26
-79 30 -85 4 -5 10 -21 13 -35 10 -44 68 -205 78 -214 5 -6 9 -24 9 -40 1 -17
7 -42 15 -56 8 -14 14 -38 15 -53 0 -16 5 -38 11 -49 6 -11 15 -44 19 -72 5
-28 16 -89 25 -136 46 -241 46 -572 1 -755 -39 -159 -64 -227 -141 -390 -29
-60 -56 -117 -59 -125 -3 -8 -15 -28 -26 -45 -11 -16 -23 -37 -27 -45 -30 -68
-286 -360 -315 -360 -7 0 -8 14 -5 38 3 20 9 82 12 137 6 89 4 104 -14 140
-23 43 -27 70 -11 80 15 9 124 244 144 310 29 95 44 156 55 215 11 60 37 316
34 340 -1 8 -7 78 -13 155 -6 77 -15 163 -20 190 -5 28 -14 77 -20 110 -6 33
-15 85 -19 116 -5 30 -13 65 -20 77 -6 11 -11 32 -11 45 0 14 -7 41 -15 60 -8
20 -15 50 -15 66 0 16 -4 32 -9 36 -5 3 -13 20 -16 38 -13 61 -87 282 -115
342 -15 33 -35 83 -45 110 -9 28 -24 66 -32 85 -24 57 -30 73 -48 120 -9 25
-23 57 -31 72 -8 14 -14 33 -14 41 0 9 -6 28 -14 44 -21 41 -66 143 -66 149 0
3 -20 47 -44 97 -72 152 -93 199 -114 257 -12 30 -32 86 -46 123 -29 75 -34
169 -16 268 6 30 14 97 20 149 5 52 16 136 24 185 8 50 20 118 25 153 6 35 15
72 21 82 5 10 10 34 10 52 0 18 6 53 14 78 14 43 27 92 46 170 9 38 26 87 47
137 7 17 13 40 13 50 0 10 4 23 9 29 5 5 18 38 31 74 38 114 158 362 205 423
17 23 53 76 80 117 67 102 146 193 267 308 198 188 303 221 707 223 113 1 240
4 281 8 l75 6 3 36 c5 60 -20 73 -135 71 -61 -1 -116 -8 -148 -19 -41 -14 -93
-17 -290 -17 -260 -1 -279 2 -403 62 -56 27 -182 150 -182 177 0 27 -28 16
-39 -16 -8 -24 -15 -30 -28 -25 -94 36 -116 40 -146 23 -16 -9 -35 -17 -42
-17 -21 0 -76 52 -166 156 -72 84 -109 113 -109 85 0 -13 107 -156 165 -219
44 -49 185 -162 202 -162 17 -1 65 -48 59 -58 -3 -5 -36 -13 -73 -17 -37 -4
-85 -14 -106 -22 -36 -15 -39 -14 -75 10 -54 37 -101 84 -152 152 -52 69 -66
96 -76 145 -3 19 -10 40 -14 45 -4 6 -11 25 -15 44 -10 46 -25 21 -25 -41 0
-27 -3 -48 -7 -48 -3 0 -30 23 -59 50 -87 82 -134 62 -134 -57 0 -73 26 -151
74 -221 18 -26 49 -71 69 -101 61 -87 49 -140 -40 -185 -100 -51 1 -40 222 24
17 4 55 18 85 30 173 67 347 110 437 109 90 -1 168 -38 116 -55 -74 -24 -254
-116 -303 -155 -26 -21 -74 -52 -106 -69 -94 -51 -247 -52 -419 -5 -33 9 -73
19 -90 22 -16 2 -40 9 -53 16 -18 9 -31 7 -67 -11 -90 -44 -81 -92 24 -134 77
-30 287 -33 369 -5 29 11 83 20 120 20 l67 2 3 -31 c4 -45 -15 -85 -111 -231
-110 -167 -210 -364 -275 -539 -68 -184 -92 -269 -146 -515 -61 -275 -87 -462
-93 -655 -7 -192 3 -245 77 -434 52 -135 52 -134 -12 -145 -20 -4 -62 -21 -92
-40 l-55 -33 -17 46 c-126 344 -195 479 -353 687 -135 178 -396 412 -1001 895
-168 134 -365 300 -438 369 -121 114 -301 312 -408 447 -59 74 -234 355 -281
449 -53 106 -136 312 -163 405 -12 41 -37 122 -55 180 -63 197 -70 260 -70
600 0 360 2 371 105 683 116 347 265 609 483 848 206 226 307 352 293 366 -6
6 -166 -150 -199 -195 -12 -16 -69 -78 -125 -138 -57 -60 -108 -118 -113 -129
-5 -11 -34 -54 -64 -95 -87 -120 -117 -169 -168 -275 -26 -55 -54 -113 -62
-128 -8 -16 -15 -36 -15 -46 0 -9 -7 -26 -15 -37 -8 -10 -15 -28 -15 -39 0
-11 -7 -29 -15 -39 -8 -11 -15 -30 -15 -42 0 -12 -7 -35 -15 -50 -8 -16 -15
-39 -15 -51 0 -12 -4 -24 -9 -27 -5 -4 -12 -24 -16 -46 -4 -22 -11 -42 -16
-46 -5 -3 -9 -23 -9 -44 0 -21 -5 -51 -11 -67 -7 -15 -15 -71 -20 -123 -4 -52
-12 -142 -17 -199 -6 -65 -7 -139 -1 -195 5 -50 12 -129 15 -176 3 -47 12
-107 20 -134 8 -27 14 -69 14 -92 0 -24 4 -45 9 -48 5 -3 12 -22 16 -42 3 -20
10 -44 15 -53 5 -9 16 -43 25 -76 9 -33 23 -75 31 -93 8 -18 14 -39 14 -47 0
-7 6 -26 14 -42 8 -15 22 -48 32 -73 47 -124 129 -289 191 -385 83 -128 149
-230 165 -255 9 -14 29 -38 45 -55 16 -16 64 -75 108 -130 101 -128 354 -378
470 -465 50 -38 101 -79 115 -91 48 -45 138 -119 145 -119 11 0 101 -72 195
-156 25 -22 74 -63 110 -90 64 -48 102 -78 124 -100 6 -6 34 -27 61 -48 45
-33 297 -268 415 -386 57 -57 108 -120 140 -174 14 -23 41 -64 60 -91 19 -28
40 -59 46 -70 20 -37 76 -150 90 -182 20 -46 46 -105 54 -123 4 -8 15 -42 24
-75 10 -33 22 -68 27 -77 22 -42 7 -78 -44 -111 -26 -17 -30 -17 -53 -3 -13 9
-32 29 -41 44 -10 15 -20 29 -23 32 -5 5 -64 78 -100 124 -11 14 -16 55 -20
148 l-5 130 -33 29 c-18 16 -41 29 -51 29 -32 0 -80 -48 -87 -86 -3 -19 -9
-34 -13 -32 -11 5 -115 79 -294 209 -95 69 -180 128 -188 132 -7 4 -27 16 -44
26 -16 11 -57 34 -90 51 -33 18 -67 38 -75 45 -8 6 -22 15 -30 19 -8 3 -37 20
-65 36 -27 17 -61 36 -75 43 -14 6 -34 20 -45 30 -11 11 -29 23 -40 28 -11 5
-33 18 -50 29 -16 11 -52 31 -80 45 -27 14 -72 39 -100 55 -27 16 -61 34 -74
40 -14 6 -45 26 -70 44 -25 18 -73 46 -106 63 -33 16 -100 51 -149 77 -65 35
-94 45 -107 39 -21 -9 -20 -10 216 -258 79 -82 154 -163 166 -180 13 -16 73
-80 134 -142 60 -61 129 -133 151 -160 23 -26 74 -84 114 -128 39 -44 87 -102
106 -130 29 -42 75 -104 113 -151 5 -7 26 -43 46 -80 20 -38 51 -96 68 -129
46 -85 61 -136 54 -187 -9 -64 -24 -128 -31 -135 -15 -15 -87 37 -206 151 -36
35 -78 71 -95 82 -16 10 -70 48 -120 84 -97 72 -233 162 -305 203 -48 28 -84
46 -220 111 -47 22 -107 53 -133 68 -26 16 -53 28 -59 28 -6 0 -36 12 -67 26
-31 14 -72 33 -91 41 -19 8 -48 21 -63 29 -16 8 -35 14 -44 14 -8 0 -27 6 -41
14 -15 8 -47 22 -72 31 -25 10 -58 23 -75 30 -16 7 -41 17 -55 23 -14 6 -55
24 -91 41 -36 17 -70 31 -76 31 -6 0 -24 6 -40 14 -44 22 -95 43 -138 56 -22
7 -53 18 -70 25 -57 23 -100 37 -135 44 -19 4 -45 13 -57 19 -44 24 -84 10
-66 -23 5 -8 43 -50 84 -93 41 -42 82 -88 90 -102 21 -33 208 -230 376 -398
73 -73 133 -136 133 -139 0 -4 -7 -14 -16 -24 -9 -10 -18 -35 -21 -57 -4 -33
-10 -42 -32 -47 -49 -12 -89 -46 -113 -93 -21 -44 -23 -59 -23 -225 1 -146 -2
-177 -13 -172 -7 3 -18 5 -23 5 -5 0 -15 16 -23 35 -12 27 -27 40 -68 58 -29
13 -68 41 -87 62 l-34 39 5 118 c3 72 10 123 18 132 6 9 28 18 49 21 70 12 82
16 101 35 25 25 26 61 2 90 -14 17 -35 25 -82 31 -35 5 -69 14 -77 20 -8 8
-13 36 -13 83 -1 88 -13 146 -36 163 -26 19 -78 16 -105 -6 -20 -16 -24 -30
-27 -95 l-4 -76 -39 6 c-53 9 -84 -13 -106 -76 -10 -27 -21 -50 -25 -50 -11 0
-82 72 -118 120 -19 25 -37 47 -40 50 -4 3 -41 57 -84 120 -42 63 -100 147
-127 185 -27 39 -59 90 -71 115 -12 25 -30 56 -39 70 -9 14 -29 49 -45 78 -16
29 -44 79 -61 110 -34 60 -117 226 -138 277 -21 48 -33 77 -55 130 -39 93 -58
143 -69 190 -4 17 -13 40 -19 53 -7 12 -17 32 -24 44 -6 13 -15 36 -19 53 -5
16 -15 57 -24 90 -32 120 -46 181 -54 236 -5 30 -13 65 -20 77 -6 11 -11 36
-11 54 0 18 -7 51 -15 73 -8 22 -14 59 -15 83 0 24 -5 52 -11 64 -6 11 -15 52
-19 92 -27 231 -40 314 -51 341 -12 29 -13 27 -20 -49 -5 -43 -10 -80 -12 -82
-2 -2 -24 22 -49 53 -24 32 -57 64 -72 72 -24 14 -28 13 -48 -7 -42 -41 -33
-209 28 -547 78 -431 159 -714 295 -1039 110 -262 278 -564 476 -858 128 -190
132 -198 112 -209 -46 -24 -79 -28 -127 -13 -43 13 -56 25 -142 136 -120 153
-385 474 -399 483 -15 8 -14 -10 2 -37 20 -37 129 -180 168 -223 21 -22 59
-69 85 -105 26 -36 70 -92 99 -125 28 -33 64 -77 79 -97 28 -37 28 -39 12 -72
-9 -19 -16 -50 -16 -70 0 -31 -5 -38 -39 -56 -41 -20 -81 -63 -81 -86 0 -22
-30 -16 -40 9 -6 12 -19 36 -30 52 -54 84 -120 218 -120 244 0 6 -4 19 -10 29
-5 9 -16 35 -25 57 -9 22 -23 55 -31 73 -8 18 -14 37 -14 43 0 6 -7 27 -16 47
-9 21 -22 52 -30 70 -8 18 -14 37 -14 43 0 5 -13 37 -29 72 -16 34 -33 71 -37
82 -7 19 -8 19 -11 -3 -3 -12 7 -63 22 -112 15 -50 25 -98 23 -107 -2 -11 -28
13 -84 78 -83 97 -121 126 -149 116 -42 -17 -31 -79 60 -328 36 -99 65 -184
65 -189 0 -5 -22 -21 -50 -35 -65 -33 -117 -79 -140 -126 -11 -20 -44 -61 -73
-91 -71 -70 -92 -130 -91 -253 0 -75 4 -99 26 -145 46 -98 116 -151 226 -169
96 -15 174 12 193 69 10 27 33 40 73 40 10 0 47 14 83 31 35 17 66 29 67 27 2
-1 17 -30 35 -63 35 -66 254 -367 419 -574 59 -74 106 -136 105 -138 -1 -3
-34 -20 -73 -39 -46 -22 -96 -58 -145 -104 -41 -38 -78 -70 -82 -70 -5 0 -23
-13 -41 -30 -30 -27 -35 -29 -55 -15 -12 8 -49 17 -82 21 -76 9 -90 16 -120
64 -48 76 -125 94 -314 74 -161 -18 -315 -47 -416 -79 -44 -15 -137 -39 -207
-55 -69 -16 -193 -54 -275 -85 -285 -109 -304 -115 -374 -115 -36 0 -88 -7
-115 -15 -68 -21 -101 -19 -162 10 -83 39 -97 35 -172 -44 -36 -37 -94 -88
-129 -111 -112 -75 -216 -193 -250 -284 -24 -64 -45 -248 -38 -327 6 -63 27
-109 90 -193 24 -32 50 -74 57 -95 10 -26 15 -128 18 -361 4 -358 -8 -620 -40
-860 -34 -249 -26 -479 22 -586 37 -86 134 -152 256 -175 95 -18 322 -4 589
36 132 20 434 54 670 76 666 62 730 74 845 168 24 20 61 44 82 53 106 48 170
117 204 222 9 28 34 85 55 126 21 42 41 90 45 106 8 40 -29 126 -68 159 -38
32 -106 33 -273 4 -114 -19 -212 -26 -739 -48 -144 -6 -291 -19 -400 -35 -307
-46 -603 -86 -628 -86 -13 0 -34 9 -46 21 -22 20 -22 25 -17 167 3 81 8 166
11 188 l5 41 212 7 c393 13 635 64 739 155 18 15 58 41 88 56 30 15 69 38 86
51 50 37 162 187 195 261 17 38 47 103 66 145 65 144 56 192 -48 248 -84 45
-123 43 -225 -8 -47 -24 -118 -49 -177 -62 -77 -17 -105 -29 -137 -55 -54 -45
-69 -49 -133 -30 -61 18 -162 9 -232 -21 -27 -11 -54 -14 -89 -10 -28 3 -104
9 -169 12 -160 8 -159 7 -151 193 4 79 11 141 18 147 20 21 138 53 491 134
193 44 383 90 422 101 189 52 449 166 557 243 33 24 81 53 105 66 24 12 65 41
90 64 50 46 134 106 149 106 5 0 12 -28 15 -63 49 -491 128 -916 257 -1387
126 -459 183 -617 342 -934 103 -206 108 -220 119 -349 13 -164 52 -235 154
-283 36 -17 68 -24 114 -24 90 0 136 17 196 72 32 29 66 51 86 54 115 22 165
100 199 306 17 107 30 151 91 299 54 133 79 211 105 329 86 392 118 510 135
493 15 -15 37 -141 44 -253 10 -162 34 -381 51 -472 68 -357 255 -620 505
-710 58 -21 81 -23 254 -22 304 0 407 25 690 169 166 85 337 188 494 300 35
25 70 45 78 45 8 0 25 -11 39 -25 l25 -25 -3 -217 c-2 -193 0 -223 16 -258 28
-62 81 -121 132 -145 39 -20 57 -22 122 -17 43 3 131 19 197 35 151 38 222 46
275 32 34 -9 44 -18 57 -48 15 -34 14 -49 -1 -177 -43 -366 -28 -580 61 -850
77 -235 172 -379 353 -537 172 -150 332 -236 456 -246 70 -5 101 7 110 43 6
24 9 25 86 25 92 0 103 18 22 36 -73 17 -91 24 -189 72 -102 51 -111 57 -220
155 -117 105 -193 186 -223 237 -14 25 -29 47 -32 50 -7 7 -64 125 -85 175 -9
22 -20 47 -25 56 -5 9 -12 33 -15 53 -4 20 -11 39 -16 42 -5 3 -9 18 -9 34 0
16 -6 47 -14 67 -20 53 -30 173 -30 343 0 196 12 323 38 392 l21 58 135 0 c74
0 165 3 203 7 l67 6 0 -74 c-1 -41 -7 -101 -15 -134 -21 -85 -21 -478 0 -555
8 -30 15 -68 15 -85 0 -16 6 -47 14 -70 8 -22 20 -60 27 -85 18 -63 36 -96
133 -241 27 -41 69 -105 95 -144 25 -38 49 -72 52 -75 4 -3 22 -28 40 -56 39
-58 156 -190 163 -183 10 10 -34 88 -98 172 -102 134 -270 386 -311 468 -68
134 -115 377 -115 592 0 140 28 332 63 431 l22 61 55 3 c90 4 114 -15 186
-149 93 -174 191 -269 275 -269 46 0 67 20 75 70 l6 39 50 -20 c72 -28 88 -25
48 11 -18 16 -48 40 -67 52 -18 13 -35 30 -38 38 -3 8 -20 32 -38 52 -62 71
-97 164 -97 256 l0 61 58 44 c82 63 192 131 199 123 10 -10 21 -109 22 -192 1
-39 5 -84 11 -100 5 -16 14 -56 20 -89 17 -106 36 -179 48 -183 19 -6 14 56
-14 185 -29 128 -39 312 -18 333 8 8 29 -11 77 -72 36 -46 80 -97 98 -114 105
-99 245 -164 408 -191 88 -14 107 -14 187 -1 113 19 223 65 339 141 49 33 121
80 158 105 94 62 225 205 327 358 68 102 91 129 115 136 51 14 72 1 137 -85
140 -186 261 -275 492 -364 189 -73 209 -93 259 -253 34 -108 35 -112 20 -158
-13 -40 -23 -52 -63 -74 -73 -41 -103 -87 -108 -163 -7 -104 29 -173 112 -218
35 -19 57 -22 146 -22 118 0 169 17 246 80 23 19 49 35 56 35 27 0 104 57 156
115 100 112 173 297 158 399 -4 24 -22 69 -41 101 -19 31 -32 61 -29 66 3 5
24 9 47 9 78 0 174 28 273 79 145 74 192 71 308 -22 134 -106 244 -114 323
-23 28 31 38 36 77 36 80 0 108 39 197 275 178 471 184 483 217 496 34 13 201
24 235 15 43 -10 85 -54 105 -109 12 -32 26 -116 36 -212 23 -218 64 -397 158
-685 44 -135 67 -178 181 -330 162 -217 227 -270 327 -270 56 0 85 12 144 59
21 17 47 31 56 31 10 0 55 30 100 66 115 93 124 116 117 288 -4 108 -31 295
-62 434 -5 21 -1 20 47 -17 121 -91 221 -121 405 -121 127 0 305 20 407 46
138 35 402 166 607 299 57 37 122 80 144 94 97 63 330 310 449 476 84 116 105
164 121 271 8 51 24 131 36 176 18 72 20 101 16 218 -3 74 -13 176 -22 225
-13 67 -15 118 -11 200 3 61 2 137 -4 170 -6 33 -15 104 -20 158 -5 54 -14
106 -19 115 -5 9 -33 27 -63 41 -53 26 -53 27 -79 106 -15 44 -34 107 -44 140
-35 119 -79 195 -167 283 -98 98 -103 102 -146 102 -42 0 -78 -37 -92 -94 -23
-92 -22 -91 -65 -87 -22 1 -51 11 -66 22 -14 10 -69 38 -122 63 -53 25 -141
70 -195 100 -156 89 -196 99 -493 123 -68 5 -83 3 -131 -19 -30 -14 -83 -52
-119 -85 -35 -33 -84 -73 -109 -90 -106 -72 -208 -215 -319 -445 -143 -296
-216 -557 -262 -941 -6 -54 -13 -96 -15 -94 -2 2 -30 114 -63 249 -72 295
-148 562 -196 687 -41 108 -62 187 -79 293 l-13 78 36 5 c66 11 144 45 226 99
44 29 112 74 150 99 132 86 333 318 404 467 71 150 101 232 101 274 0 39 -6
51 -56 107 -75 86 -80 89 -137 89 -49 0 -51 -2 -136 -84 -47 -46 -111 -99
-142 -118 -34 -22 -96 -81 -159 -152 -57 -64 -111 -116 -120 -116 -9 0 -67 54
-129 120 -62 66 -141 140 -175 165 -83 59 -193 108 -289 129 -25 6 -26 9 -16
29 17 30 96 135 133 175 33 35 46 40 46 17 0 -24 27 -72 45 -79 25 -9 64 12
77 41 7 16 13 30 14 32 2 1 13 -4 26 -13 28 -20 51 -20 87 -1 41 21 51 61 51
197 0 117 0 119 21 107 33 -17 59 -89 68 -191 10 -105 22 -143 48 -156 27 -14
62 3 74 36 l10 29 38 -19 c36 -17 42 -18 74 -4 53 22 60 56 55 281 -3 189 -3
190 -33 244 -65 117 -184 170 -308 138 -33 -9 -59 -11 -63 -6 -3 5 33 105 80
223 89 222 122 326 111 354 -5 14 -7 14 -15 2 -6 -8 -10 -26 -10 -40 0 -14 -7
-34 -15 -44 -8 -11 -15 -28 -15 -38 0 -10 -4 -26 -9 -36 -31 -56 -71 -147 -71
-160 0 -7 -6 -26 -14 -40 -8 -15 -22 -47 -31 -72 -10 -25 -23 -58 -31 -75 -7
-16 -15 -38 -18 -47 -3 -10 -14 -18 -25 -18 -56 0 -86 -34 -99 -109 -6 -38
-13 -47 -47 -67 -61 -34 -78 -72 -85 -189 -5 -72 -13 -114 -29 -150 -48 -107
-87 -178 -117 -213 -17 -21 -41 -56 -54 -78 -25 -46 -31 -50 -142 -89 -96 -33
-178 -82 -243 -144 -27 -26 -74 -65 -103 -85 -61 -44 -123 -126 -153 -205 -17
-43 -23 -82 -25 -164 -2 -88 -6 -113 -23 -141 -19 -30 -249 -247 -270 -254 -5
-2 -41 30 -79 70 -72 75 -237 184 -312 206 -19 6 -93 13 -165 17 -112 5 -148
2 -260 -19 -155 -29 -225 -51 -359 -116 -70 -34 -124 -69 -176 -115 -119 -105
-157 -120 -331 -134 -81 -6 -172 -11 -203 -11 l-55 0 -6 38 c-3 20 -10 61 -16
91 -12 61 -8 66 51 77 19 3 51 10 70 16 19 5 53 14 75 18 59 13 125 31 165 45
19 7 79 27 132 44 54 17 105 35 115 40 44 22 95 41 111 41 9 0 26 7 36 15 11
8 28 15 38 15 9 0 34 7 55 16 21 9 47 20 58 25 11 4 51 22 88 38 38 17 73 31
79 31 5 0 22 6 36 14 15 7 45 22 67 32 22 11 68 36 103 57 34 20 65 37 67 37
8 0 91 42 170 85 39 21 95 52 127 69 31 17 96 58 145 91 48 33 96 63 106 67
19 8 149 94 237 158 122 88 203 140 217 140 8 0 35 -18 60 -39 112 -100 318
-101 348 -3 7 26 15 33 45 38 102 16 190 76 190 128 0 33 -41 76 -73 76 -13 0
-45 -7 -71 -16 -26 -9 -49 -14 -52 -11 -3 2 6 22 21 42 14 21 25 41 25 45 0 4
27 14 59 23 115 32 148 137 84 271 l-16 35 39 44 c21 24 71 83 109 131 39 48
85 106 103 129 19 23 47 59 64 80 30 37 55 68 177 228 35 46 69 90 74 97 25
32 -18 7 -80 -48 -64 -56 -93 -72 -93 -51 0 5 -9 13 -21 16 -38 12 -96 -44
-289 -285 l-191 -238 -102 1 c-88 2 -108 -1 -144 -21 -59 -31 -109 -77 -138
-126 -13 -22 -43 -59 -65 -81 -53 -51 -74 -91 -99 -193 -22 -90 -46 -141 -88
-190 l-28 -34 3 143 4 143 71 76 c271 285 626 789 800 1135 77 154 250 564
281 665 102 335 250 1170 208 1170 -11 0 -42 -155 -42 -207 0 -23 -5 -54 -11
-70 -6 -15 -15 -50 -19 -78 -5 -27 -16 -93 -25 -145 -9 -52 -20 -120 -24 -151
-5 -30 -13 -65 -20 -77 -6 -11 -11 -37 -11 -57 0 -19 -7 -52 -15 -72 -8 -19
-15 -44 -15 -55 0 -11 -7 -43 -16 -72 -9 -28 -20 -64 -24 -81 -24 -90 -54
-181 -61 -190 -5 -5 -9 -17 -9 -27 0 -10 -13 -44 -30 -75 -16 -31 -30 -63 -30
-72 0 -10 -4 -21 -9 -26 -5 -6 -24 -46 -41 -90 -18 -44 -57 -130 -86 -192 -30
-61 -58 -122 -63 -135 -5 -12 -25 -47 -45 -77 -20 -29 -36 -55 -36 -57 0 -2
-18 -33 -40 -69 -22 -36 -40 -69 -40 -73 0 -11 -107 -170 -142 -212 -16 -19
-57 -73 -89 -120 -33 -47 -72 -98 -86 -114 -14 -15 -36 -45 -50 -65 -13 -20
-41 -52 -61 -71 -52 -50 -162 -169 -194 -210 l-28 -35 0 31 c0 54 -28 129 -65
171 -76 89 -206 114 -316 61 -69 -34 -72 -34 -126 -2 -30 17 -41 29 -36 39 5
7 55 62 112 122 57 59 139 144 181 188 42 44 105 114 140 155 35 41 101 115
147 165 46 49 82 94 80 100 -5 15 -56 18 -72 5 -8 -7 -29 -16 -47 -20 -32 -8
-83 -25 -123 -41 -81 -33 -99 -39 -112 -39 -15 0 -65 -20 -116 -46 -16 -8 -34
-14 -41 -14 -6 0 -47 -18 -90 -40 -43 -22 -85 -40 -93 -40 -8 0 -29 -6 -46
-14 -32 -13 -81 -33 -157 -61 -99 -37 -128 -49 -180 -72 -30 -13 -68 -30 -85
-37 -16 -7 -55 -25 -85 -41 -398 -203 -401 -204 -465 -252 -24 -18 -47 -33
-50 -33 -11 0 -173 -108 -243 -162 -35 -26 -67 -48 -71 -48 -4 0 -13 18 -20
41 -12 40 -90 129 -136 155 -20 12 -20 12 5 60 26 52 76 129 99 153 8 9 27 37
43 63 16 26 33 48 38 48 4 0 27 24 51 53 85 104 156 181 284 313 224 230 363
378 388 411 13 18 52 61 85 95 34 34 62 65 62 69 0 15 -33 18 -58 5 -15 -8
-34 -17 -42 -20 -8 -3 -37 -20 -65 -36 -27 -17 -62 -35 -77 -41 -16 -6 -28
-15 -28 -20 0 -5 -6 -9 -13 -9 -8 0 -32 -13 -53 -28 -50 -36 -201 -129 -279
-172 -33 -18 -97 -57 -142 -86 -45 -30 -88 -54 -96 -54 -8 0 -34 -11 -58 -25
-24 -14 -51 -28 -59 -32 -8 -4 -53 -30 -100 -58 -47 -28 -96 -55 -110 -61 -14
-6 -45 -27 -70 -45 -45 -35 -170 -119 -175 -119 -14 0 -225 -159 -225 -169 0
-3 -16 -19 -35 -34 l-36 -28 -35 30 c-47 42 -94 42 -135 2 -43 -44 -35 -114
17 -142 24 -12 24 -13 4 -31 -10 -10 -24 -18 -29 -18 -5 0 -13 -9 -16 -20 -3
-11 -11 -20 -16 -20 -5 0 -9 -7 -9 -15 0 -7 -6 -18 -13 -22 -7 -4 -45 -51 -84
-103 -40 -52 -80 -105 -90 -118 l-19 -23 -11 56 c-7 31 -22 69 -34 86 l-21 31
24 51 c132 274 210 423 255 483 29 39 53 75 53 80 0 17 90 135 164 213 136
146 298 301 313 301 3 0 31 24 62 53 32 28 82 71 112 95 30 23 88 69 129 103
41 33 111 87 155 119 140 103 177 134 244 198 36 35 84 76 106 90 144 96 672
653 691 730 4 12 9 22 13 22 3 0 17 20 31 45 14 25 28 45 32 45 5 0 8 6 8 14
0 8 6 21 13 28 18 20 77 108 77 115 0 6 88 192 126 266 8 16 14 35 14 42 0 7
6 26 14 42 8 15 22 48 32 73 9 25 22 59 29 75 7 17 18 48 25 70 6 22 16 54 22
70 6 17 13 50 17 75 4 25 13 55 19 67 7 12 12 42 12 67 0 24 5 57 11 73 11 27
32 259 33 358 0 86 -16 288 -26 330 -6 22 -14 67 -18 100 -8 62 -21 117 -46
195 -8 25 -14 53 -14 62 0 10 -12 43 -26 75 -46 104 -54 124 -54 138 0 7 -7
26 -15 42 -8 15 -44 90 -81 167 -37 76 -88 166 -113 200 -26 33 -62 86 -81
116 -59 95 -117 160 -378 428 -98 101 -132 127 -132 104z m687 -1624 c-3 -8
-6 -5 -6 6 -1 11 2 17 5 13 3 -3 4 -12 1 -19z m-3164 -1597 c21 -5 41 -12 45
-15 11 -11 -33 -35 -143 -77 -175 -66 -406 -191 -522 -282 -269 -209 -443
-465 -596 -877 -36 -96 -75 -218 -87 -270 -29 -124 -28 -123 -29 -64 -2 86 18
254 40 344 36 144 140 384 223 513 54 85 207 266 312 368 172 168 244 216 446
303 145 61 227 76 311 57z m2135 -1944 c7 -36 -42 -109 -151 -224 -156 -166
-210 -229 -321 -378 -142 -190 -127 -176 -180 -169 -41 6 -48 4 -75 -24 -21
-20 -31 -40 -31 -60 0 -46 -9 -60 -51 -84 -59 -33 -79 -83 -89 -230 -5 -68
-10 -160 -10 -205 0 -73 3 -85 26 -112 37 -44 80 -43 130 4 21 20 47 35 61 35
29 0 83 26 83 41 0 10 38 27 81 36 24 4 27 1 33 -31 4 -20 17 -48 30 -62 29
-34 62 -25 82 22 l14 33 35 -20 c38 -23 84 -19 107 8 9 11 14 67 18 190 5 171
5 175 30 194 37 30 234 160 244 162 5 1 12 -9 16 -23 5 -20 -1 -31 -28 -57
-37 -35 -37 -54 -1 -105 10 -15 19 -32 19 -38 0 -24 -54 -114 -81 -138 -78
-65 -92 -161 -40 -261 40 -78 36 -104 -27 -163 -123 -115 -714 -442 -1062
-588 -107 -45 -210 -91 -227 -102 -18 -11 -63 -34 -100 -53 -73 -35 -123 -75
-123 -98 0 -23 31 -44 110 -76 100 -41 104 -46 88 -105 -9 -33 -9 -52 -2 -63
19 -30 82 -55 192 -75 210 -39 230 -56 206 -177 -32 -162 -74 -342 -84 -360
-6 -12 -28 -25 -53 -31 -23 -6 -48 -13 -56 -16 -8 -3 -76 -9 -150 -15 -136
-10 -249 -24 -286 -36 -40 -13 40 -20 121 -11 149 16 383 21 398 9 11 -9 9
-37 -15 -174 -16 -89 -29 -165 -29 -169 0 -13 -72 -9 -115 6 -46 16 -77 32
-120 61 -45 30 -66 42 -115 66 -52 26 -182 109 -192 124 -10 13 -97 10 -142
-5 -82 -27 -88 -73 -18 -139 58 -57 298 -192 451 -256 146 -61 181 -94 181
-167 0 -58 -55 -316 -105 -488 -49 -171 -91 -278 -132 -340 -42 -64 -151 -172
-167 -167 -22 7 -88 104 -131 192 -49 102 -136 349 -166 471 -44 183 -61 333
-66 585 l-6 247 41 88 c62 137 69 156 132 361 78 255 102 407 102 648 -1 274
-34 431 -162 765 -27 69 -51 137 -55 152 l-7 26 85 3 c96 4 140 26 145 71 3
22 10 27 56 36 81 16 143 49 167 89 25 40 17 71 -26 99 -25 16 -31 16 -91 2
l-64 -15 34 46 c25 33 47 51 82 64 66 25 199 148 276 255 l63 87 3 -60 c2 -33
0 -80 -3 -103 -5 -37 -8 -41 -18 -28 -21 27 -57 24 -81 -7 -19 -25 -21 -44
-24 -174 -5 -173 2 -225 31 -259 19 -22 26 -24 48 -16 14 6 31 24 38 40 l13
30 34 -20 c24 -14 42 -18 64 -13 59 13 60 21 60 335 0 318 -1 324 -66 336 -19
3 -33 11 -32 16 8 24 131 151 213 219 130 109 218 172 410 291 292 180 466
272 505 265 8 -1 16 -10 18 -20z m-5901 -178 c224 -130 442 -282 606 -422 58
-50 121 -130 115 -146 -2 -5 -29 -27 -61 -48 -40 -27 -74 -62 -105 -108 -63
-92 -76 -99 -110 -58 -15 18 -60 95 -101 172 -85 161 -146 246 -350 491 -184
221 -175 210 -163 210 6 0 81 -41 169 -91z m2439 -304 c5 -103 4 -128 -6 -118
-25 23 -40 127 -40 284 0 86 3 159 7 163 10 10 30 -161 39 -329z m4804 195
c43 -43 15 -107 -109 -246 -49 -55 -126 -132 -170 -171 -77 -68 -81 -71 -123
-66 -54 6 -89 -19 -106 -75 -9 -29 -23 -46 -62 -71 -36 -23 -71 -61 -120 -131
-39 -54 -74 -101 -79 -104 -5 -3 -12 38 -16 92 -8 123 -20 163 -63 212 -46 55
-82 71 -181 84 l-85 11 70 42 c102 61 372 194 515 254 154 64 480 188 497 189
6 0 21 -9 32 -20z m-8747 -79 c51 -22 161 -67 246 -101 247 -98 522 -231 640
-309 12 -7 5 -20 -33 -62 -26 -29 -54 -67 -63 -83 -9 -17 -32 -45 -52 -62 -20
-18 -45 -48 -56 -68 -11 -20 -24 -36 -30 -36 -33 0 -192 141 -180 159 2 5 22
11 44 15 43 6 81 44 81 78 0 11 -13 33 -29 49 -35 34 -70 37 -165 13 -61 -15
-65 -15 -102 4 -41 21 -331 310 -383 383 -53 72 -45 74 82 20z m2535 -83 c9
-9 12 -128 12 -474 0 -391 -2 -463 -15 -474 -22 -19 -55 -2 -62 31 l-6 30 -21
-20 c-29 -27 -105 -61 -140 -61 -96 -1 -193 76 -221 175 -24 83 -17 254 12
311 68 130 235 172 330 84 18 -17 34 -30 37 -30 4 0 6 94 6 208 0 213 3 232
40 232 9 0 21 -5 28 -12z m2122 -42 c6 -8 10 -25 8 -38 -3 -22 -6 -23 -120
-26 l-118 -3 0 -414 c0 -399 -1 -415 -19 -425 -27 -14 -37 -13 -55 6 -14 13
-16 66 -16 424 l0 409 -117 3 c-115 3 -118 4 -121 26 -7 51 0 52 283 52 217 0
265 -3 275 -14z m-4926 -52 c3 -9 6 -72 6 -140 l0 -124 90 0 c75 0 92 -3 97
-16 14 -37 -10 -49 -101 -52 l-86 -3 0 -200 c0 -199 0 -200 25 -224 19 -20 34
-25 75 -25 60 0 90 -13 90 -39 0 -34 -26 -44 -95 -39 -100 8 -156 52 -175 134
-15 62 -13 717 2 732 17 17 65 15 72 -4z m6590 0 c21 -20 20 -43 -1 -66 -29
-33 -93 -13 -93 28 0 49 59 73 94 38z m-1586 -21 c5 -16 30 -59 56 -97 63 -92
68 -106 45 -135 -11 -13 -22 -41 -25 -62 -5 -32 -11 -39 -36 -44 -16 -4 -45
-20 -64 -37 -51 -45 -64 -102 -64 -289 l0 -158 -25 23 c-14 13 -25 29 -25 35
0 7 -4 17 -10 24 -46 56 -100 139 -110 171 -9 28 -11 89 -8 216 4 165 6 178
28 208 17 23 21 39 17 65 -5 33 -4 35 31 41 20 3 54 6 76 6 30 0 44 7 65 30
32 36 37 37 49 3z m-739 -202 c16 -27 43 -87 59 -133 45 -129 112 -428 95
-428 -26 0 -193 513 -193 595 0 24 6 18 39 -34z m-5631 -60 c79 -41 122 -111
122 -201 0 -98 -4 -100 -215 -100 l-175 0 0 -51 c0 -65 25 -107 82 -139 59
-33 145 -33 212 -1 36 18 53 21 65 14 26 -16 18 -46 -18 -70 -78 -53 -199 -56
-297 -8 -104 51 -140 135 -132 311 5 115 24 163 85 213 74 61 188 75 271 32z
m766 18 c21 -6 60 -31 87 -56 71 -67 79 -98 79 -329 0 -208 -4 -223 -54 -210
l-25 6 -3 203 c-3 201 -3 204 -30 244 -66 100 -202 96 -262 -7 -19 -32 -21
-55 -25 -238 l-3 -202 -24 -6 c-53 -13 -55 -5 -52 299 3 254 5 281 21 291 24
15 51 -3 55 -38 4 -32 9 -33 43 0 49 47 121 63 193 43z m1410 5 c9 -4 16 -18
16 -34 0 -32 -14 -40 -71 -40 -46 0 -72 -11 -112 -49 -50 -45 -52 -56 -57
-265 -4 -175 -7 -200 -22 -210 -13 -8 -23 -8 -35 0 -16 10 -18 37 -21 297 l-2
287 26 6 c32 8 54 -15 54 -55 1 -22 2 -24 13 -11 50 60 153 96 211 74z m632
-29 c53 -31 87 -72 109 -129 23 -61 18 -265 -8 -314 -44 -81 -141 -142 -226
-142 -76 1 -171 65 -214 145 -19 35 -22 56 -22 165 0 143 11 177 78 242 73 71
195 85 283 33z m2074 2 c56 -29 105 -92 118 -152 10 -48 2 -109 -18 -129 -7
-7 -78 -13 -193 -16 l-182 -5 2 -48 c2 -62 29 -106 83 -136 59 -33 147 -34
207 -3 52 27 69 28 83 2 16 -29 -24 -65 -96 -86 -148 -43 -315 31 -352 155 -7
21 -12 85 -12 141 0 122 12 167 58 220 76 89 195 112 302 57z m1914 27 c9 -4
16 -18 16 -34 0 -32 -14 -40 -71 -40 -46 0 -72 -11 -112 -49 -50 -45 -52 -56
-57 -265 -4 -175 -7 -200 -22 -210 -13 -8 -23 -8 -35 0 -16 10 -18 37 -21 297
l-2 287 25 6 c31 8 55 -10 55 -42 0 -13 5 -24 10 -24 6 0 10 4 10 9 0 12 62
50 98 61 33 10 85 12 106 4z m624 -23 c79 -41 122 -111 122 -199 0 -97 1 -96
-207 -102 l-178 -5 -3 -48 c-2 -34 2 -57 17 -80 48 -79 178 -106 273 -58 48
24 74 23 84 -4 10 -24 -23 -52 -85 -76 -76 -28 -168 -23 -246 16 -105 51 -141
134 -133 311 3 86 7 106 31 146 67 114 211 158 325 99z m1207 18 c54 -14 118
-67 148 -123 20 -38 22 -58 25 -242 3 -177 2 -203 -13 -217 -21 -21 -39 -21
-59 -1 -13 13 -16 46 -16 208 0 184 -1 195 -23 227 -69 102 -187 105 -261 6
-19 -26 -21 -45 -26 -234 -4 -182 -7 -207 -22 -217 -13 -8 -23 -8 -35 0 -16
10 -18 36 -18 294 0 258 2 284 18 294 24 15 51 -3 55 -38 2 -14 5 -26 7 -26 1
0 17 13 34 29 48 45 112 58 186 40z m830 -23 c27 -16 51 -42 71 -78 l29 -53 0
-214 c0 -193 -2 -215 -17 -225 -25 -15 -52 3 -56 38 -4 33 -9 33 -58 -3 -77
-56 -152 -65 -224 -28 -59 29 -85 75 -85 148 0 116 85 169 273 169 l82 0 0 46
c0 57 -23 108 -61 135 -36 26 -126 28 -183 4 -47 -20 -66 -14 -66 19 0 71 197
99 295 42z m816 0 c20 -14 45 -39 55 -56 10 -16 21 -30 24 -30 3 0 14 13 23
30 20 33 85 75 135 85 50 10 125 -12 170 -51 67 -57 76 -90 80 -320 3 -177 2
-203 -13 -217 -21 -21 -39 -21 -59 -1 -14 13 -16 47 -16 212 0 179 -2 200 -20
230 -45 73 -134 93 -204 46 -60 -41 -66 -67 -66 -287 0 -209 -3 -222 -52 -215
-23 3 -23 3 -28 213 -3 131 -10 218 -17 230 -47 82 -141 109 -214 61 -63 -42
-69 -67 -69 -290 0 -186 -1 -196 -20 -206 -12 -6 -30 -8 -41 -5 -19 6 -19 15
-17 298 l3 292 30 0 c25 0 32 -5 40 -32 l11 -33 25 26 c59 58 168 67 240 20z
m1135 19 c101 -30 164 -113 164 -218 0 -94 -6 -97 -214 -97 -162 0 -175 -1
-181 -19 -7 -24 9 -95 29 -126 43 -66 179 -90 263 -47 52 27 69 28 83 2 26
-49 -101 -107 -210 -97 -64 5 -142 37 -178 70 -50 47 -66 94 -70 215 -5 135 7
185 55 242 68 79 158 105 259 75z m799 4 c54 -14 118 -67 148 -123 20 -38 22
-58 25 -248 4 -202 3 -207 -18 -218 -28 -15 -56 -5 -64 23 -3 12 -6 103 -6
203 0 172 -1 183 -23 215 -69 102 -187 105 -261 6 -19 -26 -21 -45 -26 -234
-4 -182 -7 -207 -22 -217 -13 -8 -23 -8 -35 0 -16 10 -18 36 -18 294 0 258 2
284 18 294 24 15 51 -3 55 -38 2 -14 5 -26 7 -26 1 0 17 13 34 29 48 45 112
58 186 40z m-4257 -11 c9 -9 12 -86 12 -284 0 -234 -2 -275 -16 -288 -8 -9
-22 -16 -29 -16 -7 0 -21 7 -29 16 -14 13 -16 53 -16 280 0 164 4 273 10 285
12 21 50 25 68 7z m-7225 -122 c37 -15 70 -58 65 -84 -2 -13 -17 -2 -57 41
-58 61 -58 65 -8 43z m8661 -7 c27 -21 34 -53 15 -65 -7 -4 -16 1 -21 10 -6
10 -31 31 -56 47 l-46 29 41 0 c26 0 50 -7 67 -21z m2803 1 c38 -23 50 -43 59
-99 4 -28 3 -41 -5 -41 -6 0 -11 6 -11 14 0 20 -87 114 -113 122 -21 7 -21 7
-2 15 30 12 37 11 72 -11z m-3562 -20 c10 -11 16 -20 13 -20 -3 0 -13 9 -23
20 -10 11 -16 20 -13 20 3 0 13 -9 23 -20z m1966 3 c13 -16 12 -17 -3 -4 -17
13 -22 21 -14 21 2 0 10 -8 17 -17z m-8499 -41 c14 -9 37 -29 50 -43 13 -14
39 -44 59 -65 36 -40 36 -41 41 -145 4 -84 9 -115 30 -160 55 -120 146 -182
269 -182 58 0 79 5 132 32 70 36 78 35 147 -14 25 -18 68 -45 95 -60 28 -15
57 -33 66 -41 8 -8 18 -14 22 -14 3 0 26 -13 50 -30 25 -16 49 -30 55 -30 5 0
15 -7 22 -15 7 -8 18 -15 26 -15 7 0 48 -21 90 -47 94 -59 127 -77 279 -148
66 -30 133 -62 148 -70 16 -8 34 -15 41 -15 7 0 33 -11 57 -25 24 -13 64 -34
89 -45 25 -11 53 -25 62 -30 10 -6 23 -10 29 -10 12 0 66 -22 112 -46 16 -8
35 -14 42 -14 7 0 26 -6 42 -14 45 -23 74 -34 143 -57 36 -12 69 -25 74 -30 6
-5 19 -9 29 -9 10 0 31 -6 45 -13 15 -8 42 -21 60 -30 19 -9 39 -17 47 -17 7
0 18 -7 25 -15 7 -8 23 -15 36 -15 13 0 28 -9 33 -19 9 -16 6 -20 -17 -26 -41
-11 -459 -6 -501 5 -20 6 -97 15 -171 20 -74 5 -180 16 -235 25 -55 8 -125 18
-155 23 -30 4 -71 13 -90 19 -19 6 -58 18 -86 27 -29 9 -65 16 -80 16 -16 1
-40 7 -54 15 -14 8 -36 14 -49 15 -21 0 -90 19 -146 41 -11 4 -45 15 -75 24
-72 22 -155 57 -222 91 -14 8 -31 14 -37 14 -6 0 -28 11 -49 23 -20 13 -66 40
-102 59 -119 64 -207 115 -255 146 -11 6 -29 16 -40 21 -11 5 -38 25 -60 45
-22 20 -43 36 -47 36 -4 0 -13 6 -21 14 -7 8 -30 23 -49 33 -55 29 -230 163
-261 199 l-27 32 27 46 c25 40 32 45 64 46 76 0 99 55 99 240 0 110 2 131 22
172 26 53 32 55 70 30z m4583 -50 c51 -43 185 -253 185 -290 0 -35 59 -138
101 -179 24 -23 49 -48 54 -55 46 -57 145 -254 145 -288 0 -10 5 -22 10 -25 6
-3 10 -14 10 -23 0 -9 7 -30 15 -46 8 -15 15 -36 15 -45 0 -9 7 -25 15 -35 8
-11 15 -35 15 -54 0 -18 5 -43 12 -55 42 -79 43 -595 2 -741 -8 -27 -14 -62
-14 -77 0 -15 -6 -40 -14 -56 -13 -27 -21 -49 -62 -188 -9 -33 -21 -67 -25
-75 -4 -8 -15 -35 -24 -60 -9 -25 -23 -57 -31 -72 -8 -14 -14 -34 -14 -43 0
-9 -4 -14 -8 -11 -7 4 1 109 27 351 14 120 74 368 114 463 27 67 31 89 32 168
0 81 -3 96 -30 150 -22 43 -43 68 -79 92 -60 40 -112 42 -198 7 -34 -14 -65
-25 -70 -25 -9 0 -45 55 -94 146 -20 37 -55 91 -79 120 -25 30 -50 64 -56 76
-7 13 -15 25 -19 28 -3 3 -17 23 -30 45 -13 22 -27 42 -30 45 -4 3 -12 15 -19
28 -6 12 -32 47 -56 77 -44 53 -103 152 -94 157 2 2 18 10 34 18 17 9 38 31
47 50 16 31 22 34 53 31 28 -2 41 4 63 26 29 28 29 29 34 191 7 188 16 214 63
174z m-3505 -206 c217 -208 260 -229 319 -158 l31 37 22 -30 c12 -16 45 -53
73 -81 62 -61 116 -80 230 -78 118 2 183 34 212 103 13 31 17 33 49 28 19 -3
48 -1 65 5 44 15 59 58 59 167 0 49 4 92 9 95 5 3 27 -14 48 -37 31 -34 44
-59 57 -115 39 -159 138 -242 292 -244 80 -2 135 24 149 69 7 27 15 34 45 39
62 10 99 25 152 60 28 19 52 33 53 32 10 -14 102 -248 134 -341 36 -106 131
-460 131 -491 0 -9 -28 -11 -112 -8 -154 5 -204 -13 -284 -104 -31 -35 -61
-64 -67 -64 -5 0 -32 -16 -59 -36 l-50 -36 -172 76 c-95 41 -208 88 -252 105
-307 114 -864 362 -999 446 -38 23 -137 82 -220 130 -164 95 -288 183 -305
216 -13 24 -15 22 25 42 48 24 115 94 136 143 11 24 22 74 25 111 3 38 8 74
10 82 5 17 3 19 194 -163z m-2553 112 c28 -31 40 -77 48 -178 4 -47 13 -100
21 -117 26 -64 94 -65 116 -2 10 28 11 28 38 14 41 -21 64 -19 99 10 19 17 31
37 33 58 2 18 9 32 16 32 6 0 57 -44 111 -97 73 -72 117 -106 165 -129 36 -17
71 -37 77 -45 6 -8 15 -14 19 -14 13 0 372 -220 410 -251 19 -16 42 -29 52
-29 9 0 20 -5 23 -11 4 -5 17 -14 28 -19 12 -5 45 -23 72 -40 28 -16 56 -32
63 -35 6 -3 18 -7 25 -10 6 -3 19 -9 27 -14 8 -5 33 -17 55 -27 22 -11 67 -35
100 -54 33 -20 80 -44 105 -54 25 -10 59 -24 75 -32 109 -48 154 -68 179 -80
16 -8 35 -14 42 -14 7 0 30 -7 51 -16 21 -9 54 -24 73 -32 19 -8 47 -21 62
-29 14 -7 33 -13 42 -13 9 0 16 -5 16 -12 0 -16 -85 -97 -157 -149 -32 -23
-76 -61 -98 -86 -44 -49 -81 -62 -187 -63 -32 0 -58 -3 -58 -7 0 -3 23 -30 50
-59 28 -29 50 -57 50 -62 0 -5 -20 -44 -43 -86 -24 -42 -63 -121 -87 -177 -42
-95 -45 -100 -69 -94 -50 13 -50 18 -25 138 14 62 45 189 71 282 56 206 58
247 16 337 -53 113 -94 121 -258 52 -71 -30 -101 -49 -145 -94 -30 -30 -72
-66 -92 -78 -49 -31 -102 -94 -135 -160 -24 -49 -28 -53 -52 -47 -14 4 -35 14
-46 23 -47 41 -104 92 -169 153 -39 36 -91 83 -116 105 -24 21 -58 55 -75 74
-16 19 -85 93 -151 165 -67 71 -140 153 -164 180 -23 28 -63 74 -88 104 -26
30 -50 61 -53 70 -4 9 -18 27 -31 41 -28 28 -138 177 -138 186 0 3 -10 20 -23
37 -26 37 -38 58 -68 112 -19 37 -20 40 -4 50 40 24 47 33 55 70 5 22 10 86
10 143 0 56 4 102 8 102 5 0 18 -10 29 -22z m422 -78 c46 -87 42 -98 -22 -55
-35 24 -37 28 -37 80 0 30 4 55 8 55 5 0 27 -36 51 -80z m3903 23 c31 -37 29
-41 -41 -62 -38 -12 -74 -21 -81 -21 -6 0 8 22 32 50 46 53 66 61 90 33z
m5119 -4 c6 -12 15 -66 20 -120 12 -148 45 -209 113 -209 34 0 33 -13 -6 -50
-37 -35 -214 -170 -223 -170 -8 0 -146 -90 -161 -105 -6 -6 -101 -55 -210
-109 -109 -54 -212 -105 -229 -113 -16 -9 -52 -27 -80 -40 -27 -14 -63 -31
-78 -39 -16 -8 -35 -14 -42 -14 -8 0 -31 -7 -52 -16 -21 -9 -51 -23 -68 -30
-28 -12 -104 -34 -185 -53 -19 -5 -55 -14 -80 -21 -25 -6 -70 -15 -102 -20
-31 -4 -62 -11 -70 -16 -7 -5 -40 -12 -73 -15 -63 -7 -156 -24 -215 -41 -99
-27 -740 -81 -740 -62 0 5 33 24 73 42 39 18 84 40 99 48 14 8 33 14 41 14 9
0 28 6 44 14 15 8 42 20 58 26 17 7 44 18 60 25 17 7 48 19 70 28 81 30 131
51 182 74 29 13 62 27 75 33 13 5 46 23 73 40 28 16 57 32 65 36 8 3 22 9 30
14 8 5 58 31 110 58 124 64 162 85 240 137 36 23 75 46 88 49 12 4 22 12 22
17 0 5 4 9 9 9 5 0 51 25 102 55 128 76 245 131 296 140 57 9 104 42 128 90
24 48 32 55 66 55 41 0 78 36 85 80 5 29 16 46 40 65 18 14 39 25 47 25 16 0
27 -41 27 -99 0 -148 120 -217 177 -102 17 33 21 36 56 33 30 -3 43 2 67 27
29 29 30 32 30 130 0 56 2 101 5 101 2 0 9 -10 16 -21z m389 -27 c16 -58 12
-107 -10 -133 l-19 -24 -1 103 c0 106 10 125 30 54z m-1960 -14 c0 -26 -8 -55
-20 -73 l-20 -30 0 46 c0 44 18 99 33 99 4 0 7 -19 7 -42z m-8470 -4 c0 -8
-71 -36 -78 -30 -3 3 10 12 29 20 37 17 49 19 49 10z m10685 -194 c16 0 17 -2
5 -10 -8 -5 -27 -10 -42 -10 -23 0 -28 4 -28 26 0 24 1 24 22 10 12 -9 32 -16
43 -16z m-168 -31 c35 -61 27 -88 -51 -163 -119 -116 -583 -388 -885 -521
-177 -77 -491 -172 -491 -148 0 15 173 113 569 323 85 45 189 105 230 132 150
101 340 238 403 291 81 69 179 138 191 134 5 -1 20 -23 34 -48z m-197 25 c0
-8 -40 -44 -49 -44 -5 0 -11 -6 -14 -12 -10 -30 -15 1 -6 33 10 31 14 35 40
31 16 -2 29 -6 29 -8z m-4336 -62 c32 -24 60 -61 166 -212 41 -58 126 -179
190 -270 118 -169 165 -242 189 -295 20 -45 30 -94 20 -101 -5 -3 -9 -2 -9 3
0 4 -9 19 -20 33 l-20 25 2 -72 c3 -110 -35 -131 -48 -27 -9 78 -22 58 -49
-79 -32 -160 -37 -167 -70 -92 -57 132 -73 151 -101 123 -9 -9 -25 -75 -39
-164 -71 -433 -161 -726 -322 -1049 -146 -291 -374 -606 -553 -765 -94 -83
-106 -78 -103 41 3 139 18 166 110 199 44 16 57 54 48 136 l-7 65 139 142
c168 172 233 266 332 482 125 273 176 467 188 720 11 237 -50 592 -162 945
-29 91 -57 225 -49 232 1 2 33 3 71 3 56 -1 75 -5 97 -23z m6785 -174 c18 -37
28 -48 47 -48 20 0 24 -5 24 -32 0 -18 -11 -52 -24 -74 -13 -23 -33 -71 -45
-107 -21 -63 -39 -93 -140 -239 -65 -93 -216 -238 -292 -279 -221 -120 -290
-94 -501 188 l-122 164 -79 39 c-88 44 -137 50 -178 22 -129 -85 -121 -77
-153 -171 -24 -71 -100 -211 -114 -211 -12 0 -72 105 -84 147 -7 21 -17 45
-23 53 -7 8 -15 57 -18 109 -6 89 -4 99 23 163 39 91 69 129 143 177 192 125
351 121 557 -15 64 -42 230 -207 254 -252 26 -50 95 -102 136 -102 22 0 94 68
152 146 21 27 58 72 83 99 25 28 89 101 142 162 l98 113 45 -3 c43 -2 46 -4
69 -49z m-11932 -574 c29 -18 30 -23 43 -259 24 -434 58 -713 114 -936 116
-457 148 -577 195 -739 27 -96 62 -222 76 -280 14 -58 42 -154 61 -213 53
-160 73 -157 122 18 31 113 126 536 166 750 13 66 42 210 64 320 22 110 47
236 56 280 19 101 79 391 105 511 31 142 69 265 95 304 23 35 120 90 239 135
54 20 67 14 67 -33 0 -13 9 -35 20 -49 30 -39 25 -85 -29 -275 -54 -188 -117
-467 -151 -673 -12 -71 -30 -170 -41 -220 -11 -49 -24 -129 -29 -177 -9 -92
-32 -207 -80 -398 -15 -63 -31 -135 -35 -160 -4 -25 -17 -81 -30 -125 -13 -44
-27 -102 -30 -130 -16 -117 -62 -252 -155 -461 -18 -38 -30 -88 -34 -135 -11
-120 -26 -181 -58 -237 l-30 -54 -48 7 c-35 5 -56 2 -78 -9 -58 -30 -123 -15
-185 43 -62 57 -81 129 -51 199 26 63 21 104 -25 181 -73 124 -207 402 -260
541 -57 151 -112 330 -172 560 -23 85 -52 193 -65 239 -35 122 -119 550 -149
756 -27 189 -53 563 -42 606 8 31 128 115 185 128 47 12 140 3 169 -15z m4278
-25 c19 -36 42 -37 55 -4 8 21 16 25 53 25 38 0 47 -5 74 -37 16 -21 35 -48
41 -60 14 -25 16 -107 3 -99 -5 3 -12 -1 -15 -10 -3 -9 -6 -187 -6 -396 0
-210 -3 -378 -7 -374 -5 4 -13 22 -20 39 l-11 32 -1 -32 c-1 -33 -17 -52 -31
-37 -4 5 -10 116 -12 247 -4 193 -3 241 8 252 19 19 17 39 -5 59 -11 10 -21
30 -23 45 -2 14 -7 -122 -11 -304 -22 -965 -39 -1381 -61 -1475 -9 -36 -16
-111 -16 -166 0 -68 -5 -114 -15 -138 -19 -45 -6 -79 28 -74 16 2 24 13 30 38
26 122 34 145 46 142 7 -1 19 5 27 15 12 16 13 4 11 -84 -1 -56 2 -105 6 -110
5 -4 113 -8 240 -7 226 0 235 1 357 32 69 17 190 40 270 51 130 18 152 19 211
7 36 -8 82 -21 103 -30 35 -15 38 -19 33 -46 -5 -23 -2 -32 13 -40 22 -12 26
-40 9 -57 -9 -9 -7 -19 7 -40 19 -28 25 -65 24 -152 l0 -44 60 7 c36 4 60 3
60 -2 0 -16 -77 -42 -123 -42 -60 0 -89 -36 -52 -64 13 -10 12 -16 -6 -54 -22
-43 -62 -75 -127 -101 -18 -8 -42 -26 -55 -40 -45 -54 -62 -57 -392 -73 -282
-13 -534 -12 -660 3 -74 8 -82 7 -108 -12 -26 -19 -30 -19 -52 -5 -49 32 -165
13 -223 -36 -36 -31 -43 -33 -58 -18 -7 7 -17 5 -30 -4 -17 -13 -22 -12 -47
12 l-29 27 -32 -37 c-18 -21 -42 -38 -53 -38 -10 0 -24 -5 -30 -11 -18 -18
-33 -1 -33 38 0 20 -5 53 -12 75 -9 31 -9 44 0 59 14 22 16 59 4 59 -5 0 -14
11 -20 25 -18 39 -30 30 -42 -32 -16 -80 -20 -93 -30 -93 -12 0 -2 243 15 375
12 90 35 435 35 526 0 19 -5 16 -32 -22 -130 -182 -302 -373 -422 -469 -35
-27 -122 -78 -192 -113 -71 -34 -149 -76 -174 -93 -61 -42 -243 -100 -360
-114 -52 -7 -165 -14 -251 -17 -235 -7 -312 21 -448 162 -131 137 -208 303
-250 540 -21 120 -43 404 -43 565 -1 294 48 653 123 895 107 345 297 687 447
801 39 30 52 34 103 34 32 0 91 -7 131 -16 40 -8 89 -13 109 -10 49 8 142 -18
214 -59 33 -19 120 -64 193 -100 169 -83 200 -111 246 -221 41 -97 43 -110 19
-136 -23 -26 -72 -23 -162 12 -81 31 -220 70 -329 91 -118 22 -179 -24 -273
-211 -53 -106 -108 -276 -110 -339 0 -20 -4 -45 -9 -56 -29 -68 4 239 37 337
26 79 25 108 -2 72 -96 -128 -205 -492 -257 -864 -18 -133 -15 -587 5 -695 20
-105 57 -185 113 -246 43 -45 50 -49 94 -49 73 0 77 13 30 107 -39 78 -51 121
-30 108 6 -4 21 -28 35 -54 32 -65 69 -107 104 -119 23 -8 40 -5 95 18 110 47
277 151 336 210 77 77 296 378 348 477 50 97 105 251 122 343 12 68 12 75 -16
555 -11 181 -14 334 -10 465 7 228 12 270 33 270 9 0 58 -43 111 -96 74 -75
98 -107 108 -142 8 -25 23 -61 34 -79 11 -19 20 -48 20 -64 0 -16 7 -46 16
-67 9 -20 28 -84 43 -141 27 -110 45 -136 79 -115 9 6 24 24 32 40 15 28 15
27 22 -61 3 -49 13 -130 21 -180 12 -74 12 -103 2 -162 -8 -48 -9 -87 -3 -115
4 -24 14 -74 21 -113 7 -38 16 -65 19 -59 15 23 61 353 93 659 8 83 20 195 26
250 6 55 14 172 18 260 5 123 11 168 24 193 19 34 41 42 51 17 8 -21 27 -10
60 35 17 22 36 40 43 40 13 0 17 8 43 77 10 25 22 35 59 48 25 9 55 22 65 30
23 17 31 13 51 -26z m1977 -10 c32 -23 57 -92 65 -180 5 -61 3 -75 -31 -156
-49 -120 -112 -381 -126 -523 -6 -63 -18 -178 -26 -255 -13 -117 -13 -186 -5
-420 14 -382 38 -533 124 -795 72 -218 132 -349 223 -486 54 -82 102 -123 181
-154 49 -19 77 -6 127 58 125 164 290 598 380 1002 29 133 129 650 146 760 12
76 67 357 94 485 18 83 109 414 128 465 19 51 44 84 61 77 7 -3 26 -38 41 -79
15 -40 35 -91 44 -113 13 -34 17 -109 22 -468 4 -235 10 -430 13 -434 4 -3 14
9 24 27 99 179 295 436 409 537 43 38 73 75 94 117 23 47 46 74 97 115 37 29
73 65 79 80 21 49 347 191 439 191 13 0 56 7 97 15 60 13 102 14 227 7 154 -9
154 -9 180 -39 15 -18 44 -35 71 -43 36 -10 66 -33 148 -114 99 -98 102 -102
97 -137 -4 -21 0 -54 10 -82 9 -27 15 -67 13 -89 -3 -36 -7 -43 -32 -49 -15
-4 -36 -14 -45 -22 -9 -8 -25 -17 -36 -19 -18 -3 -20 -10 -17 -60 4 -51 2 -58
-22 -73 -19 -12 -36 -15 -63 -11 -21 4 -55 9 -76 12 -30 5 -47 17 -85 63 -62
74 -60 73 -110 67 -29 -4 -58 1 -93 15 l-52 20 -76 -22 c-116 -32 -129 -38
-231 -108 -150 -102 -330 -271 -441 -415 -21 -28 -63 -82 -93 -120 -55 -70
-90 -148 -122 -275 -13 -53 -15 -106 -12 -300 4 -211 7 -242 26 -289 51 -130
180 -277 297 -339 168 -88 521 -208 605 -205 297 10 779 47 792 60 3 4 21 97
38 207 36 232 35 245 -32 274 -24 10 -51 28 -62 39 -18 21 -18 22 3 48 12 15
21 35 21 44 0 24 19 38 78 55 30 9 59 26 71 42 23 29 23 29 80 268 43 178 71
273 116 390 15 39 51 138 80 220 147 415 337 900 370 941 29 36 113 45 182 19
49 -19 175 -135 187 -172 9 -27 58 -75 100 -98 33 -18 36 -23 36 -66 0 -31 23
-117 69 -256 138 -413 187 -607 301 -1173 27 -134 80 -375 150 -680 11 -47 42
-170 70 -275 107 -408 142 -574 155 -750 9 -120 -5 -157 -71 -186 -27 -12 -53
-33 -62 -50 -25 -43 -47 -45 -87 -10 -20 17 -48 37 -65 46 -16 8 -44 36 -61
63 -18 26 -47 65 -65 87 -17 22 -44 65 -59 95 -37 75 -53 91 -81 84 -20 -5
-24 -1 -33 33 -6 21 -31 106 -56 188 -102 333 -145 521 -145 636 0 129 -49
403 -78 431 -16 16 -26 15 -177 -12 -88 -17 -209 -35 -270 -41 -82 -8 -115
-15 -129 -29 -10 -9 -44 -96 -76 -191 -32 -96 -86 -244 -120 -329 -34 -85 -68
-173 -74 -195 -23 -73 -69 -165 -83 -165 -7 0 -39 13 -71 29 -31 16 -72 32
-90 36 -53 11 -62 27 -62 116 l0 80 -47 -6 c-85 -11 -157 -27 -208 -45 -27
-10 -64 -21 -81 -25 -43 -8 -68 -37 -60 -69 6 -24 5 -24 -72 -30 -42 -4 -113
-10 -157 -15 -44 -5 -116 -6 -160 -1 -44 4 -84 6 -88 3 -5 -3 -30 -5 -56 -5
-40 1 -50 -3 -59 -21 -15 -29 -42 -149 -36 -159 3 -5 15 -8 28 -8 26 0 83 -39
133 -90 42 -43 57 -94 43 -149 -5 -23 -15 -60 -21 -83 -25 -101 -145 -265
-216 -294 -40 -17 -206 -19 -269 -3 -40 10 -48 17 -70 62 -23 44 -25 57 -18
106 4 31 8 71 9 89 0 42 26 62 77 62 55 0 78 -27 78 -90 l0 -49 41 -11 c63
-17 83 -7 120 57 82 141 84 193 9 231 -24 12 -62 22 -85 22 -22 0 -47 6 -55
13 -33 27 -51 173 -31 258 5 21 5 42 2 48 -4 6 -83 31 -177 56 -254 67 -398
150 -528 301 -113 132 -200 320 -230 494 -7 41 -16 74 -20 73 -5 -1 -28 -46
-51 -100 -70 -162 -184 -403 -233 -490 -70 -126 -195 -286 -281 -359 -126
-107 -309 -184 -440 -184 -89 0 -249 37 -330 77 -105 51 -209 156 -290 293
-187 319 -269 753 -287 1520 -5 250 -3 309 15 485 24 225 49 394 86 570 13 66
27 142 31 170 8 64 39 93 172 163 142 73 195 82 254 41z m4364 -5 c22 -12 46
-30 54 -38 11 -14 7 -18 -23 -31 -20 -8 -40 -15 -45 -15 -21 0 -92 -62 -112
-98 -22 -38 -25 -40 -86 -47 -70 -7 -84 -3 -84 26 0 13 7 19 24 19 45 0 87 42
135 132 52 98 55 99 137 52z m-11487 -29 c30 -8 58 -18 63 -23 15 -15 -18 -44
-58 -51 -56 -9 -51 -33 11 -49 28 -7 99 -13 158 -14 82 0 110 -4 114 -14 3 -8
-14 -36 -37 -64 -32 -39 -62 -60 -126 -91 -74 -35 -104 -59 -74 -59 26 0 6
-30 -27 -40 -21 -7 -72 -30 -113 -51 -114 -58 -364 -145 -497 -173 -155 -32
-657 -150 -731 -171 -31 -9 -109 -41 -173 -71 -63 -30 -122 -54 -131 -54 -35
0 -41 -25 -29 -123 6 -50 10 -154 8 -229 -3 -181 -9 -175 149 -153 l119 16 64
-26 c79 -30 98 -31 127 -4 24 22 64 33 162 44 43 5 62 4 62 -4 0 -6 -14 -14
-31 -18 -47 -9 -15 -20 66 -23 103 -4 121 -2 145 18 20 16 21 21 9 40 -20 31
-7 39 106 61 122 23 135 28 215 80 35 23 69 41 76 41 7 0 29 -13 47 -30 20
-17 46 -30 61 -30 24 0 26 -3 26 -45 0 -34 -12 -67 -50 -140 -27 -52 -50 -104
-50 -116 0 -28 -23 -69 -55 -99 -15 -14 -49 -53 -76 -87 -55 -68 -83 -83 -209
-108 -225 -44 -264 -48 -587 -52 -312 -5 -322 -4 -334 15 -12 19 -13 19 -37
-10 -30 -35 -36 -95 -47 -434 l-8 -222 29 -18 c40 -27 104 -24 344 14 113 17
243 36 290 42 47 5 126 16 175 24 50 9 225 20 395 26 389 13 556 26 678 49
103 21 211 29 229 18 7 -4 14 -20 18 -36 3 -16 13 -35 21 -42 21 -18 18 -31
-30 -112 -25 -42 -54 -107 -66 -146 -44 -149 -106 -180 -440 -220 -47 -6 -260
-26 -475 -46 -214 -19 -478 -48 -585 -65 -337 -51 -442 -62 -577 -58 l-128 3
-82 48 c-44 26 -84 54 -87 62 -3 8 -10 102 -16 208 -9 163 -9 205 4 268 48
237 69 599 61 1064 -3 198 -8 379 -11 403 -6 52 -23 61 -71 38 -47 -22 -65
-15 -91 39 -27 56 -27 76 -2 150 23 67 25 97 8 160 -13 48 -16 38 51 160 24
44 32 50 62 53 33 3 40 10 84 82 57 95 69 107 90 90 8 -7 15 -18 15 -24 1 -6
17 -21 37 -34 31 -20 40 -21 70 -11 20 6 54 8 84 4 49 -7 50 -6 62 24 13 36
17 37 49 12 24 -19 25 -19 99 0 41 11 92 29 114 39 124 58 332 132 422 150 56
11 139 32 185 46 194 59 329 84 613 113 6 0 34 -6 64 -14z m8811 -81 c0 -8
-120 -61 -177 -78 -57 -16 -68 -11 -75 34 -3 24 0 26 67 36 76 13 185 17 185
8z m4545 -5 c22 -5 92 -13 155 -17 106 -7 121 -11 185 -44 39 -20 135 -70 215
-110 179 -90 212 -121 259 -240 33 -84 33 -88 17 -112 -23 -37 -76 -34 -184 8
-83 32 -248 77 -339 91 -96 15 -161 -41 -248 -214 -59 -119 -98 -239 -110
-337 -11 -101 -27 -101 -20 1 9 132 23 209 50 288 14 39 22 73 19 76 -9 9 -51
-48 -79 -107 -75 -158 -143 -415 -197 -737 -17 -105 -18 -668 -1 -741 31 -132
97 -245 165 -280 26 -13 38 -14 70 -5 21 7 38 18 38 26 0 8 -15 45 -34 82 -18
37 -37 79 -41 93 -7 22 -6 23 8 12 9 -8 26 -34 38 -58 24 -51 71 -102 107
-115 31 -12 106 20 266 115 134 80 175 117 261 236 33 45 86 116 118 156 82
106 118 166 164 274 88 208 88 209 87 460 -1 124 -6 283 -12 353 -20 215 -12
720 10 743 14 13 47 -9 86 -57 22 -28 59 -63 80 -79 30 -22 44 -41 57 -82 10
-29 26 -67 36 -84 11 -17 19 -43 19 -57 0 -14 11 -56 24 -94 13 -37 31 -102
40 -144 10 -42 23 -85 31 -97 20 -28 52 -18 77 24 11 19 22 34 25 34 3 0 2
-21 -2 -47 -3 -29 0 -76 9 -118 24 -119 29 -199 16 -268 -11 -55 -10 -75 8
-172 30 -162 44 -298 36 -352 -3 -26 -19 -100 -35 -163 -16 -63 -29 -138 -29
-167 0 -47 -6 -60 -64 -147 -86 -128 -163 -220 -290 -348 -129 -130 -198 -180
-341 -248 -60 -29 -130 -67 -155 -84 -108 -77 -396 -137 -660 -136 -181 0
-289 40 -386 142 -174 184 -244 361 -286 725 -42 373 -24 734 57 1128 78 379
315 844 499 977 43 31 104 37 181 17z m-2427 -59 c29 -52 85 -88 147 -96 72
-10 79 -18 71 -85 -6 -61 -23 -112 -171 -499 -175 -460 -269 -731 -326 -945
-48 -181 -71 -232 -139 -310 -55 -63 -89 -125 -90 -162 0 -13 14 -65 30 -116
30 -93 36 -147 24 -219 -6 -33 -11 -39 -43 -47 -63 -17 -250 -31 -426 -32
-160 -2 -177 0 -285 28 -191 51 -419 151 -501 221 -49 42 -119 128 -119 147 0
7 46 49 103 93 56 43 134 108 173 143 39 35 105 95 148 132 42 38 115 113 164
168 48 55 129 148 181 207 133 153 218 259 252 317 37 63 37 87 2 43 -31 -36
-74 -85 -143 -163 -25 -27 -73 -86 -105 -129 -124 -164 -476 -519 -640 -644
-33 -25 -62 -49 -65 -52 -3 -3 -26 -19 -52 -37 -38 -25 -49 -29 -58 -18 -25
31 -40 152 -40 340 0 197 9 261 50 373 49 132 148 232 228 232 16 0 46 7 65
15 20 8 49 15 65 15 16 0 46 7 65 15 20 8 49 15 65 15 15 0 32 4 38 9 5 5 36
14 69 19 84 15 148 32 160 43 5 5 23 9 40 9 16 0 55 7 85 15 30 8 74 15 97 15
48 0 75 8 67 21 -9 16 -112 10 -263 -15 -252 -42 -291 -44 -291 -11 0 31 267
175 324 175 17 0 69 -18 116 -40 130 -61 204 -56 287 20 23 22 52 40 65 40 12
0 41 9 65 21 34 16 50 33 70 73 14 28 50 77 81 109 l55 58 -7 77 c-3 42 -10
100 -15 127 l-10 50 102 99 c100 97 192 176 205 176 4 0 17 -18 30 -40z
m-9668 -256 c269 -234 320 -295 320 -388 0 -45 -217 -1152 -237 -1206 -14 -40
-87 195 -213 694 -93 368 -101 419 -134 771 -24 255 -28 329 -20 359 l7 28 76
-74 c42 -41 132 -124 201 -184z m3350 168 c0 -4 -9 -13 -20 -20 -44 -27 -73
-122 -85 -277 -3 -44 -8 -104 -12 -134 -5 -50 -7 -53 -20 -35 -7 10 -25 55
-39 99 -35 114 -84 234 -111 275 -27 40 -23 44 57 55 25 3 59 14 75 25 22 14
47 20 93 20 34 0 62 -3 62 -8z m-659 -72 c20 0 29 -5 29 -16 0 -11 -5 -14 -16
-10 -9 3 -26 6 -39 6 -13 0 -37 11 -52 25 l-28 26 39 -16 c21 -8 51 -15 67
-15z m4193 14 c21 -8 20 -37 -1 -63 -25 -29 -140 -39 -202 -17 -24 9 -53 16
-65 16 -32 0 -110 40 -100 50 5 5 66 11 134 13 69 1 146 4 172 5 25 1 53 -1
62 -4z m715 -244 c28 -15 27 -49 -5 -96 -33 -50 -175 -194 -191 -194 -14 0
-25 77 -27 202 l-1 93 30 7 c41 10 168 2 194 -12z m-5479 -205 c101 -24 312
-86 342 -101 51 -26 104 -122 79 -147 -35 -35 -489 101 -585 175 -15 12 -16
18 -7 36 30 56 59 63 171 37z m10222 4 c109 -23 335 -91 374 -114 74 -43 84
-87 105 -422 14 -235 5 -337 -41 -475 -53 -158 -107 -251 -273 -471 -75 -100
-101 -126 -164 -167 -121 -80 -171 -77 -237 11 -45 60 -76 75 -115 55 -15 -8
-33 -22 -41 -30 -10 -13 -15 -14 -28 -4 -30 26 -44 85 -56 243 -19 255 1 549
54 773 26 110 32 119 87 135 27 8 55 24 65 38 10 13 27 71 38 128 24 116 56
209 94 270 29 46 45 49 138 30z m-10327 -154 c67 -31 184 -74 225 -82 14 -2
34 -9 45 -14 19 -8 49 -16 160 -43 28 -6 64 -19 82 -29 28 -15 32 -23 38 -71
10 -81 7 -90 -45 -98 -54 -7 -211 0 -260 13 -19 5 -58 9 -85 9 -28 0 -77 7
-108 15 -32 8 -75 15 -95 15 -49 0 -112 18 -118 34 -6 17 32 208 51 253 16 39
23 39 110 -2z m6455 0 c0 -9 -8 -18 -17 -22 -21 -6 -140 -60 -165 -74 -10 -5
-28 -9 -41 -9 -13 0 -28 -3 -33 -7 -6 -5 8 10 30 31 54 51 121 81 219 95 4 1
7 -6 7 -14z m-3426 -177 c-5 -24 -9 -236 -9 -473 0 -469 2 -450 -62 -592 -13
-28 -23 -55 -23 -58 0 -15 -49 -112 -62 -122 -8 -7 -48 -17 -89 -24 -40 -6
-121 -22 -179 -36 -83 -19 -145 -25 -290 -30 -213 -6 -224 -3 -233 74 -5 39
-2 43 42 81 25 23 60 53 76 67 17 14 68 58 114 98 75 65 120 116 246 280 22
29 53 66 68 82 15 17 27 33 27 38 0 4 17 33 39 65 47 70 78 124 128 222 21 41
49 93 62 115 43 69 81 148 81 167 0 10 6 21 14 24 8 3 16 18 20 35 3 18 12 29
22 29 14 0 15 -6 8 -42z m-4130 -184 c-9 -49 -21 -93 -25 -98 -19 -22 -21 8
-4 91 23 116 23 119 36 106 7 -7 5 -38 -7 -99z m1136 -48 c118 1 282 5 364 9
120 6 150 5 157 -6 10 -16 12 -210 2 -287 -5 -43 -10 -55 -29 -62 -12 -5 -25
-14 -29 -19 -3 -6 -17 -11 -30 -11 -14 0 -42 -7 -62 -15 -42 -16 -176 -31
-412 -45 -115 -7 -161 -14 -180 -26 l-25 -17 54 -46 c30 -25 87 -75 125 -111
72 -67 159 -141 232 -198 59 -46 61 -63 20 -120 -49 -66 -92 -105 -161 -146
-91 -55 -134 -47 -222 37 -38 36 -60 50 -87 52 -20 2 -56 15 -81 30 -60 35
-64 52 -72 294 -5 153 -3 229 11 346 15 137 49 327 62 349 4 5 36 5 77 0 39
-5 168 -8 286 -8z m2050 -160 c-7 -7 -10 14 -10 70 0 105 14 119 18 18 2 -44
-2 -82 -8 -88z m-13 -148 c-3 -8 -6 -5 -6 6 -1 11 2 17 5 13 3 -3 4 -12 1 -19z
m3 -183 c0 -25 -4 -45 -10 -45 -5 0 -10 20 -10 45 0 25 5 45 10 45 6 0 10 -20
10 -45z m-1616 25 c36 -13 34 -57 -3 -137 -35 -74 -127 -212 -146 -219 -34
-13 -199 103 -261 184 -41 54 -45 98 -11 111 23 10 336 68 374 70 12 1 33 -3
47 -9z m2587 -387 c-19 -85 -51 -147 -79 -151 -21 -3 -23 -1 -17 20 11 35 98
199 103 193 3 -2 -1 -30 -7 -62z"/>
<path d="M7835 8851 c-69 -43 -95 -99 -95 -211 0 -107 25 -163 90 -207 62 -43
138 -27 199 43 l33 36 -4 129 c-3 111 -6 131 -24 156 -52 70 -137 93 -199 54z
m5 -263 c11 -18 20 -50 20 -72 0 -38 0 -38 -22 -24 -41 27 -63 128 -28 128 6
0 19 -15 30 -32z"/>
<path d="M3773 8859 c-55 -27 -83 -72 -83 -133 l0 -47 153 3 152 3 3 43 c4 57
-27 108 -82 133 -53 24 -91 24 -143 -2z"/>
<path d="M6569 8847 c-18 -12 -44 -38 -56 -56 -21 -31 -23 -46 -23 -151 0
-105 2 -120 23 -151 69 -103 199 -106 265 -6 25 38 27 48 27 157 0 109 -2 119
-27 157 -47 72 -143 95 -209 50z m185 -138 c10 -51 5 -66 -9 -29 -16 42 -18
60 -6 60 5 0 11 -14 15 -31z m-166 -119 c23 -34 31 -110 12 -110 -32 0 -78 97
-64 134 9 23 25 15 52 -24z"/>
<path d="M8650 8858 c-51 -26 -90 -89 -90 -145 l0 -34 158 3 157 3 3 40 c2 29
-3 50 -20 74 -53 78 -129 100 -208 59z m118 -57 c4 -11 -3 -13 -29 -7 -51 10
-62 28 -15 24 23 -2 41 -9 44 -17z"/>
<path d="M11193 8859 c-55 -27 -83 -72 -83 -133 l0 -46 150 0 c169 0 176 3
161 72 -12 50 -39 84 -87 108 -51 26 -88 25 -141 -1z"/>
<path d="M13290 8610 c-62 -8 -115 -31 -124 -55 -9 -26 -7 -84 4 -106 14 -25
62 -49 97 -49 42 1 105 33 136 70 24 28 28 40 25 89 l-3 56 -40 1 c-22 1 -65
-1 -95 -6z"/>
<path d="M15242 8873 c-37 -8 -89 -65 -102 -111 -21 -79 -24 -77 150 -77 l155
0 3 40 c3 45 -23 93 -69 128 -27 19 -94 30 -137 20z"/>
<path d="M9151 6883 c-1 -58 3 -104 9 -108 12 -7 12 147 0 185 -5 16 -8 -10
-9 -77z"/>
<path d="M8977 6486 c-5 -16 -18 -37 -30 -46 -18 -15 -22 -30 -25 -92 -1 -40
-4 -111 -6 -158 -2 -59 1 -92 10 -107 12 -20 11 -28 -11 -69 -26 -49 -34 -121
-14 -141 7 -7 6 -40 -5 -114 -26 -170 -46 -351 -46 -404 0 -27 -7 -71 -14 -96
-17 -55 -42 -316 -32 -326 20 -20 29 30 52 282 8 88 19 187 24 220 5 33 23
170 40 305 17 135 35 261 40 280 10 41 34 433 28 470 -4 25 -4 25 -11 -4z"/>
<path d="M15587 6713 c-5 -9 -162 -656 -231 -950 -24 -106 -42 -202 -39 -214
6 -22 7 -22 222 -16 236 6 241 7 241 69 0 15 7 46 16 69 16 39 16 43 -5 85
-23 49 -26 82 -11 134 8 25 7 60 -1 120 -14 104 -26 141 -39 120 -8 -12 -12
-12 -22 -2 -9 9 -13 45 -14 110 0 70 -8 126 -27 202 -14 58 -34 143 -44 189
-17 76 -33 106 -46 84z m-78 -810 c22 -75 35 -220 25 -270 -6 -31 -9 -33 -52
-33 -53 0 -82 21 -82 59 0 46 72 311 84 311 3 0 14 -30 25 -67z"/>
<path d="M15884 4958 c15 -112 36 -181 51 -166 6 6 -20 173 -31 203 -4 8 -11
15 -16 15 -7 0 -8 -19 -4 -52z"/>
<path d="M13285 4412 c6 -5 30 -13 55 -16 50 -7 29 6 -30 19 -23 5 -32 4 -25
-3z"/>
<path d="M15995 4388 c-8 -20 12 -88 26 -88 12 0 10 28 -6 70 -10 28 -14 31
-20 18z"/>
<path d="M16031 4210 c0 -30 5 -70 12 -89 12 -33 40 -61 52 -50 6 7 -43 170
-56 184 -5 5 -9 -13 -8 -45z"/>
<path d="M3504 7270 c-29 -10 -94 -28 -146 -40 -102 -23 -124 -32 -114 -48 9
-16 307 49 320 70 19 30 -5 37 -60 18z"/>
<path d="M3687 7283 c-12 -11 -8 -23 8 -23 8 0 15 7 15 15 0 16 -12 20 -23 8z"/>
<path d="M2970 7136 c-91 -23 -183 -48 -205 -56 -39 -13 -39 -13 -17 -28 12
-8 22 -21 22 -28 0 -8 6 -14 13 -14 35 0 112 31 137 55 30 29 128 52 103 24
-30 -31 -14 -30 140 11 52 14 61 34 29 63 -25 23 -33 22 -222 -27z"/>
<path d="M2540 7016 c0 -9 5 -16 10 -16 6 0 10 4 10 9 0 6 -4 13 -10 16 -5 3
-10 -1 -10 -9z"/>
<path d="M2313 6963 c-27 -5 -36 -28 -17 -43 11 -10 19 -9 39 4 14 9 25 23 25
31 0 15 -6 16 -47 8z"/>
<path d="M2830 5874 c0 -8 5 -12 10 -9 6 3 10 10 10 16 0 5 -4 9 -10 9 -5 0
-10 -7 -10 -16z"/>
<path d="M6546 14281 c-53 -38 -77 -49 -108 -49 -74 -1 -139 -62 -286 -269
-179 -251 -308 -568 -341 -839 -14 -112 -14 -420 -1 -539 35 -303 158 -608
347 -860 188 -250 366 -394 402 -326 14 26 6 60 -30 133 -16 32 -29 63 -29 69
0 13 1 12 120 -78 130 -101 126 -74 -10 60 -69 67 -143 147 -166 177 -68 91
-169 242 -192 287 -11 23 -25 50 -31 60 -10 19 -25 55 -56 133 -9 25 -23 60
-31 78 -8 18 -14 43 -14 55 0 13 -4 27 -9 33 -6 5 -14 34 -20 64 -5 30 -17 87
-26 125 -39 165 -39 505 0 670 9 39 20 88 24 110 8 45 27 104 47 153 8 18 14
39 14 47 0 32 135 308 171 350 14 16 38 48 53 70 98 145 145 204 226 282 72
69 42 72 -54 4z"/>
<path d="M6684 14248 c-11 -13 -25 -34 -31 -48 -6 -14 -32 -68 -57 -121 -25
-53 -46 -102 -46 -110 0 -8 -7 -23 -15 -33 -8 -11 -15 -32 -15 -46 0 -14 -4
-30 -9 -36 -9 -9 -14 -23 -43 -141 -7 -28 -16 -55 -21 -59 -4 -4 -7 -26 -7
-48 -1 -23 -7 -59 -15 -81 -8 -22 -15 -55 -15 -74 0 -18 -7 -61 -16 -95 -14
-51 -17 -116 -17 -396 1 -237 4 -344 13 -365 6 -16 16 -64 21 -105 5 -41 15
-102 23 -135 9 -33 22 -87 30 -120 23 -95 33 -126 56 -185 12 -30 25 -68 30
-85 10 -38 160 -331 203 -396 30 -46 47 -61 47 -40 0 5 -49 108 -108 229 -148
301 -225 540 -269 837 -27 187 -24 597 6 765 55 309 101 470 201 705 68 159
85 205 77 205 -2 0 -12 -10 -23 -22z"/>
<path d="M13331 14218 c29 -75 60 -170 56 -175 -2 -2 -32 30 -65 71 -70 84
-144 138 -182 134 -45 -5 -39 -59 24 -208 168 -396 256 -792 256 -1153 0 -420
-126 -918 -324 -1276 -93 -169 -108 -241 -50 -241 29 0 94 31 113 54 8 9 19
16 25 16 7 0 23 18 36 40 14 22 28 40 33 40 4 0 7 6 7 13 0 7 11 28 24 47 38
56 121 212 162 305 19 43 64 169 64 179 0 4 6 22 14 39 8 18 17 43 19 57 9 40
28 112 40 150 11 36 19 77 37 195 6 39 16 86 21 105 21 78 32 366 20 530 -6
88 -16 172 -21 186 -6 14 -10 39 -10 56 0 27 -8 71 -40 213 -6 28 -15 68 -19
90 -4 22 -13 51 -18 65 -6 14 -19 52 -28 85 -10 33 -21 68 -26 77 -5 10 -9 23
-9 29 0 6 -6 25 -14 42 -7 18 -21 52 -31 77 -42 109 -102 210 -122 210 -9 0
-7 -15 8 -52z"/>
<path d="M9620 12298 c0 -17 85 -73 135 -89 80 -26 341 -15 555 23 36 7 157
12 270 13 193 0 208 -1 260 -24 30 -12 65 -25 77 -28 31 -7 94 -63 128 -115
48 -71 60 -77 150 -78 44 -1 98 -7 120 -15 22 -8 48 -15 58 -15 11 0 32 -7 48
-15 16 -8 42 -22 58 -30 16 -8 34 -15 40 -15 17 0 117 -76 163 -124 43 -44
101 -128 120 -173 l12 -28 4 27 c8 64 -101 206 -216 281 -98 63 -178 96 -309
123 -127 26 -166 45 -258 124 -71 62 -158 106 -239 121 -98 18 -383 15 -566
-7 -91 -10 -223 -19 -295 -19 -128 0 -131 1 -218 38 -99 42 -97 41 -97 25z"/>
<path d="M2923 9293 c-74 -25 -136 -73 -169 -130 -16 -26 -50 -69 -76 -94 -37
-37 -51 -60 -68 -117 -20 -66 -21 -88 -18 -314 3 -231 4 -246 27 -296 30 -68
104 -134 168 -153 116 -33 229 -9 315 68 24 22 64 51 89 66 53 30 105 86 125
133 21 51 18 130 -6 154 -51 51 -108 30 -145 -53 -32 -73 -54 -90 -123 -95
-47 -3 -63 0 -91 20 -51 34 -59 71 -60 249 -1 187 6 249 27 249 8 0 43 -16 78
-35 98 -55 144 -46 144 28 0 53 -32 101 -88 135 -41 23 -44 27 -24 30 30 5 86
-15 104 -36 8 -9 21 -33 28 -52 21 -56 48 -80 91 -80 102 0 107 163 8 257 -77
73 -228 102 -336 66z m194 -36 c108 -28 176 -105 171 -192 -3 -50 -3 -50 -38
-50 -31 0 -35 3 -42 38 -21 102 -82 143 -196 134 -68 -5 -100 -22 -136 -71
-20 -26 -21 -42 -24 -304 -2 -272 -2 -278 20 -317 42 -73 152 -105 248 -72 41
14 78 65 86 119 8 44 24 61 56 56 20 -3 23 -10 26 -50 4 -59 -17 -106 -68
-152 -74 -67 -218 -82 -321 -34 -119 55 -139 116 -139 438 0 248 10 317 56
377 57 75 187 109 301 80z"/>
<path d="M16685 9238 c-24 -21 -26 -31 -32 -126 -5 -89 -8 -102 -22 -96 -101
44 -126 -56 -112 -436 9 -238 16 -277 64 -328 81 -87 214 -56 173 41 l-14 34
37 -13 c49 -18 146 -17 180 1 32 16 41 33 41 76 0 36 -27 54 -93 64 -82 11
-87 22 -87 188 0 171 3 177 84 188 70 9 96 30 96 76 0 49 -29 73 -88 73 -27 0
-57 7 -70 16 -20 13 -22 24 -22 95 0 46 -6 94 -14 114 -24 57 -76 71 -121 33z
m85 -37 c5 -11 10 -74 10 -140 l0 -121 84 0 c64 0 87 -4 97 -16 9 -11 10 -20
2 -32 -8 -13 -29 -18 -97 -20 l-86 -3 0 -200 c0 -199 0 -200 25 -224 18 -19
35 -25 67 -25 60 0 86 -9 93 -32 10 -31 -13 -48 -64 -48 -111 0 -182 47 -200
132 -12 52 -16 704 -5 732 9 23 61 21 74 -3z"/>
<path d="M11716 9044 c-22 -22 -15 -38 17 -42 21 -3 27 1 27 16 0 31 -25 46
-44 26z"/>
<path d="M17423 8980 c-85 -17 -151 -67 -206 -156 -14 -23 -39 -51 -54 -62
-40 -28 -79 -105 -93 -180 -38 -210 84 -401 255 -402 71 0 118 16 167 55 24
19 71 53 105 75 73 49 118 97 147 159 18 39 21 65 21 171 0 109 -3 131 -23
175 -57 124 -187 191 -319 165z m164 -59 c45 -23 94 -73 118 -121 27 -52 32
-209 11 -284 -32 -110 -144 -194 -248 -184 -97 10 -193 86 -218 176 -14 50
-13 225 2 273 21 72 94 140 173 160 44 12 118 3 162 -20z"/>
<path d="M17393 8841 c-56 -41 -68 -76 -68 -206 0 -97 3 -114 23 -147 65 -105
198 -104 269 1 21 31 23 46 23 151 0 105 -2 120 -23 151 -56 83 -150 104 -224
50z m137 -36 c37 -19 62 -66 58 -108 l-3 -31 -28 42 c-15 23 -45 54 -68 69
-29 19 -36 29 -27 34 19 12 35 11 68 -6z m-112 -215 c20 -30 32 -110 16 -110
-34 0 -64 58 -64 123 0 36 18 31 48 -13z"/>
</g>
</svg>
